<svg version="1.1" id="Layer_1" xmlns="http://www.w3.org/2000/svg" xmlns:xlink="http://www.w3.org/1999/xlink" x="0px" y="0px"
	 width="100%" viewBox="0 0 1142 1103" enable-background="new 0 0 1142 1103" xml:space="preserve">
<path fill="#4A5050" opacity="1.000000" stroke="none" 
	d="
M405.000000,1104.000000 
	C376.645782,1104.000000 348.291534,1104.000000 319.438232,1103.576904 
	C318.623901,1101.399414 318.047119,1099.646606 318.035522,1097.890137 
	C317.956512,1085.904785 317.835876,1073.915405 318.086853,1061.934814 
	C318.171997,1057.868286 316.729919,1056.654541 312.913239,1056.947388 
	C309.603790,1057.201538 306.212158,1057.345947 302.938202,1056.917358 
	C294.164062,1055.769043 292.681152,1055.339478 292.869812,1046.545288 
	C293.333069,1024.954102 293.424225,1003.354431 293.945984,981.764954 
	C294.365143,964.420837 309.558441,953.456055 324.402283,953.125671 
	C354.018219,952.466431 383.660187,952.979492 413.291382,952.996277 
	C420.899689,953.000610 422.976440,950.930603 422.989807,943.206604 
	C423.016357,927.891479 422.957153,912.576111 422.989960,897.260986 
	C423.026672,880.121338 423.126129,862.981873 423.337006,845.471802 
	C423.598724,843.117981 423.823730,841.135071 423.829254,839.151428 
	C423.899170,814.058289 423.937531,788.965027 424.010284,763.493591 
	C426.015289,762.077515 427.916260,760.370361 429.987335,760.130249 
	C435.665161,759.471802 441.414520,759.430176 447.455841,759.393066 
	C471.491425,759.743713 495.206665,759.854492 518.922058,759.904297 
	C519.629089,759.905762 520.337463,759.267334 521.045532,758.985474 
	C521.045959,759.043762 520.929504,759.045776 521.268555,758.780151 
	C521.738159,756.863770 521.982971,755.213135 521.983154,753.562439 
	C522.000732,599.761841 522.002747,445.961212 521.958374,292.160583 
	C521.957886,290.440430 521.335388,288.720428 520.534485,287.015930 
	C512.300903,287.026398 504.535980,286.989838 496.771484,287.032471 
	C493.860443,287.048431 491.497711,286.451233 491.007996,282.581543 
	C491.010132,254.092667 491.025726,226.075851 490.951233,198.059265 
	C490.945831,196.023575 490.285889,193.989624 489.987396,191.955200 
	C490.044495,191.955551 490.045013,192.069778 489.772522,191.737762 
	C487.683777,191.270630 485.867493,191.017487 484.051178,191.017227 
	C359.936493,190.998688 235.821838,190.996063 111.707176,191.041077 
	C109.805412,191.041763 107.903877,191.652130 106.001404,192.448029 
	C106.001419,254.251266 106.001549,315.584473 106.004333,376.917664 
	C106.004578,382.310028 103.831024,384.689178 98.255302,384.947113 
	C94.263611,385.131744 90.257004,384.991364 86.257065,385.000610 
	C79.796272,385.015564 79.365936,385.424438 79.022011,392.048706 
	C78.952965,393.378662 79.000381,394.714844 79.000320,396.048157 
	C78.999405,414.713501 79.020912,433.378906 78.970245,452.044098 
	C78.964447,454.179932 78.650604,456.329437 78.318497,458.447327 
	C76.939156,467.243408 78.292908,475.549286 84.642387,481.979156 
	C125.703568,523.560242 166.950989,564.957336 208.086639,606.464966 
	C212.739227,611.159607 217.131165,616.118042 221.536484,621.050110 
	C223.992767,623.800110 223.792847,626.578796 221.241791,629.326843 
	C218.539139,632.238159 215.799973,635.161560 213.519806,638.392395 
	C212.795593,639.418579 212.876038,641.914551 213.649017,642.932068 
	C216.329926,646.461060 219.372726,649.737000 222.465210,652.927551 
	C235.646423,666.526917 248.852646,680.102600 262.133270,693.604797 
	C271.188995,702.811584 271.250824,702.750793 261.950256,711.796692 
	C253.347870,720.163574 249.594818,720.208496 241.235291,711.700195 
	C233.429459,703.755371 225.817902,695.619812 218.031906,687.655090 
	C210.928329,680.388489 203.620911,673.320007 196.571350,666.002319 
	C193.098404,662.397278 189.528305,659.603088 184.118164,659.858521 
	C182.799728,659.920776 181.156189,658.614685 180.083694,657.523438 
	C167.723373,644.947632 155.463470,632.273254 143.138840,619.662231 
	C127.319893,603.475647 111.617729,587.171021 95.589272,571.194031 
	C75.546402,551.215637 55.224461,531.517273 35.019306,511.701782 
	C30.951435,507.712341 28.870066,503.153381 28.904074,497.183350 
	C29.100605,462.684570 29.001572,428.184052 28.994886,393.684143 
	C28.994596,392.185852 29.506443,390.208740 28.756535,389.287964 
	C27.145037,387.309265 24.929697,384.558105 22.847254,384.456085 
	C15.591136,384.100586 8.286311,384.739258 1.000000,385.000000 
	C1.000000,288.645782 1.000000,192.291550 1.466985,95.468582 
	C162.270782,94.999817 322.607574,95.004677 482.944366,94.952202 
	C485.298584,94.951431 487.652496,94.236649 489.994324,93.611099 
	C489.982117,93.367111 490.125427,92.900009 490.311432,92.543030 
	C490.634155,90.035385 490.887573,87.884850 490.889862,85.734039 
	C490.917786,59.750793 490.947510,33.767380 490.865143,7.784363 
	C490.853424,4.099749 491.379456,1.911396 495.956482,1.925513 
	C547.921753,2.085790 599.887512,2.079237 651.902954,2.575459 
	C651.943665,29.897636 651.914246,56.761715 651.965454,83.625633 
	C651.969421,85.703629 652.540527,87.780533 652.910522,90.242966 
	C654.897156,95.339012 659.130188,94.952621 662.981262,94.891998 
	C668.267273,94.808792 673.546875,94.041985 678.829285,94.040260 
	C830.588013,93.990677 982.346741,93.999657 1134.105469,94.005196 
	C1136.769653,94.005295 1139.433838,94.079239 1142.061401,94.578568 
	C1142.012085,177.661057 1141.994019,260.283722 1141.991821,342.906372 
	C1141.991577,356.564667 1142.060913,370.222992 1141.624512,383.919586 
	C1132.409180,383.975250 1123.667358,383.992615 1114.658691,384.331451 
	C1114.263672,385.969849 1114.024170,387.286713 1114.023315,388.603699 
	C1114.000610,423.747345 1114.002319,458.890961 1114.000000,494.483734 
	C1114.265747,500.504608 1113.902100,505.679016 1109.509277,510.094086 
	C1087.903320,531.809937 1066.442749,553.670776 1044.990967,575.539429 
	C1038.009399,582.656677 1031.283325,590.024292 1024.312622,597.152588 
	C1004.759460,617.148010 985.226685,637.165405 965.425232,656.912781 
	C963.200195,659.131775 959.298157,659.658997 956.188477,661.004639 
	C954.027954,661.939575 951.380371,662.421631 949.826172,663.979675 
	C936.195312,677.644531 922.742004,691.486938 909.283936,705.323364 
	C906.164307,708.530762 903.191406,711.883789 900.215759,715.227417 
	C896.353027,719.567688 892.476685,719.888489 887.678162,716.098694 
	C885.990845,714.766052 884.482788,713.198792 882.753479,711.928284 
	C875.317200,706.464966 874.815552,701.966675 881.113586,695.405457 
	C890.441284,685.687805 899.831238,676.029846 909.168823,666.321594 
	C917.194641,657.977112 925.184387,649.597961 934.109314,640.273926 
	C930.967957,637.627563 928.131775,635.549133 925.664185,633.099487 
	C919.170898,626.653381 919.238220,623.264587 925.690674,616.811523 
	C969.288757,573.209167 1012.882568,529.602478 1056.503174,486.022644 
	C1061.006348,481.523712 1064.170410,476.477966 1064.397949,469.559784 
	C1064.798706,468.262390 1065.065796,467.281921 1065.064819,466.301697 
	C1065.040649,442.869812 1064.999756,419.437897 1064.908325,396.006226 
	C1064.903320,394.722992 1064.434814,393.441559 1064.113037,391.730469 
	C1063.661865,389.154388 1063.279663,387.007111 1062.555908,384.641113 
	C1054.192017,384.306976 1046.169434,384.191498 1038.099609,383.604736 
	C1038.008667,321.744507 1037.947754,260.355591 1037.966919,198.966690 
	C1037.968018,195.417206 1037.736450,192.310074 1033.551880,190.613770 
	C1032.255005,190.220978 1031.276733,189.962067 1030.298950,189.964508 
	C1004.235596,190.029724 978.172302,190.121857 951.637512,190.142822 
	C950.667664,190.048004 950.169250,189.994904 949.670837,189.995010 
	C876.442017,190.010773 803.213196,190.025391 729.984375,190.082291 
	C728.365051,190.083542 726.746155,190.568649 724.653198,190.883514 
	C700.453308,190.959320 676.727112,190.979660 652.682373,191.279327 
	C652.245056,192.378006 652.022522,193.197403 652.022888,194.016724 
	C652.032959,215.012253 652.053467,236.007812 652.127075,257.003174 
	C652.131531,258.285217 652.588806,259.565643 652.888489,261.322449 
	C652.960205,267.459473 653.028809,273.121338 652.983948,278.782257 
	C652.934570,285.009003 650.899475,286.961548 644.493225,286.990814 
	C636.999939,287.025055 629.506348,286.999207 621.713013,287.295013 
	C621.275452,289.239777 621.017517,290.888916 621.017334,292.538086 
	C620.998962,446.435760 620.996765,600.333435 621.039856,754.231079 
	C621.040405,756.152283 621.637085,758.073425 622.426941,759.996521 
	C649.869690,759.999023 676.840881,760.001831 703.812134,759.994385 
	C705.475342,759.993958 707.176392,760.124329 708.795288,759.833801 
	C716.797119,758.397705 719.999207,761.070007 719.999390,769.352234 
	C720.000488,828.455872 720.056763,887.559753 719.895996,946.662903 
	C719.882690,951.565247 720.960449,953.174683 726.178406,953.129211 
	C756.477173,952.864868 786.781372,953.209045 817.079529,952.915161 
	C833.066040,952.760132 851.140564,969.423035 849.955200,986.375366 
	C849.937622,1009.915100 849.969788,1032.982056 849.707397,1056.350342 
	C843.771240,1056.767944 838.130066,1056.921875 832.487854,1056.990112 
	C826.138977,1057.066895 825.028503,1058.110718 825.011353,1064.598877 
	C824.976746,1077.732422 825.000366,1090.866333 825.000000,1104.000000 
	C796.645752,1104.000000 768.291565,1104.000000 739.454102,1103.576050 
	C738.645813,1101.397217 738.052002,1099.644409 738.039307,1097.887207 
	C737.956055,1086.391846 738.004333,1074.895630 737.997742,1063.399658 
	C737.994019,1057.012451 737.983704,1057.001831 731.377563,1057.001587 
	C657.903320,1056.999023 584.429077,1057.000000 510.954834,1057.000000 
	C477.466583,1057.000000 443.977905,1057.082275 410.490601,1056.902100 
	C406.052032,1056.878174 404.818970,1058.158691 404.902863,1062.534546 
	C405.167603,1076.351929 405.000183,1090.177612 405.000000,1104.000000 
z"/>
<path fill="#000000" opacity="1.000000" stroke="none" 
	d="
M1114.925537,384.009979 
	C1123.667358,383.992615 1132.409180,383.975250 1141.848145,383.964142 
	C1142.545166,383.970398 1143.000000,384.000000 1143.000000,384.000000 
	C1143.000000,623.898865 1143.000000,863.797668 1143.000000,1104.000000 
	C1037.312622,1104.000000 931.625000,1104.000000 825.468628,1104.000000 
	C825.000366,1090.866333 824.976746,1077.732422 825.011353,1064.598877 
	C825.028503,1058.110718 826.138977,1057.066895 832.487854,1056.990112 
	C838.130066,1056.921875 843.771240,1056.767944 850.094604,1056.141724 
	C850.873291,1033.044922 850.979248,1010.458069 851.022278,987.871216 
	C851.023560,987.215637 850.359070,986.558838 850.004944,985.902588 
	C851.140564,969.423035 833.066040,952.760132 817.079529,952.915161 
	C786.781372,953.209045 756.477173,952.864868 726.178406,953.129211 
	C720.960449,953.174683 719.882690,951.565247 719.895996,946.662903 
	C720.056763,887.559753 720.000488,828.455872 719.999390,769.352234 
	C719.999207,761.070007 716.797119,758.397705 708.795288,759.833801 
	C707.176392,760.124329 705.475342,759.993958 703.812134,759.994385 
	C676.840881,760.001831 649.869690,759.999023 622.434937,759.528320 
	C621.980957,756.893555 621.998779,754.729004 621.998840,752.564453 
	C622.004395,597.376099 622.008606,442.187775 622.012878,286.999420 
	C629.506348,286.999207 636.999939,287.025055 644.493225,286.990814 
	C650.899475,286.961548 652.934570,285.009003 652.983948,278.782257 
	C653.028809,273.121338 652.960205,267.459473 652.930420,260.865295 
	C652.946472,236.955048 652.973755,213.977524 653.000977,191.000000 
	C676.727112,190.979660 700.453308,190.959320 725.111145,190.932648 
	C800.383118,190.959732 874.723328,190.993973 949.063599,191.017502 
	C950.055908,191.017807 951.048157,190.882553 952.504150,190.861053 
	C979.935425,190.897507 1006.903076,190.883484 1033.870728,190.869476 
	C1037.736450,192.310074 1037.968018,195.417206 1037.966919,198.966690 
	C1037.947754,260.355591 1038.008667,321.744507 1038.329590,383.953552 
	C1046.703735,384.802399 1054.800659,384.831116 1062.897461,384.859833 
	C1063.279663,387.007111 1063.661865,389.154388 1064.064209,392.186584 
	C1064.102783,418.673279 1064.121094,444.275024 1064.139404,469.876801 
	C1064.170410,476.477966 1061.006348,481.523712 1056.503174,486.022644 
	C1012.882568,529.602478 969.288757,573.209167 925.690674,616.811523 
	C919.238220,623.264587 919.170898,626.653381 925.664185,633.099487 
	C928.131775,635.549133 930.967957,637.627563 934.109314,640.273926 
	C925.184387,649.597961 917.194641,657.977112 909.168823,666.321594 
	C899.831238,676.029846 890.441284,685.687805 881.113586,695.405457 
	C874.815552,701.966675 875.317200,706.464966 882.753479,711.928284 
	C884.482788,713.198792 885.990845,714.766052 887.678162,716.098694 
	C892.476685,719.888489 896.353027,719.567688 900.215759,715.227417 
	C903.191406,711.883789 906.164307,708.530762 909.283936,705.323364 
	C922.742004,691.486938 936.195312,677.644531 949.826172,663.979675 
	C951.380371,662.421631 954.027954,661.939575 956.188477,661.004639 
	C959.298157,659.658997 963.200195,659.131775 965.425232,656.912781 
	C985.226685,637.165405 1004.759460,617.148010 1024.312622,597.152588 
	C1031.283325,590.024292 1038.009399,582.656677 1044.990967,575.539429 
	C1066.442749,553.670776 1087.903320,531.809937 1109.509277,510.094086 
	C1113.902100,505.679016 1114.265747,500.504608 1114.396729,494.291138 
	C1114.837524,457.102905 1114.881470,420.556458 1114.925537,384.009979 
M892.144836,286.048859 
	C861.646484,286.033020 831.147400,286.124390 800.650696,285.890289 
	C795.860291,285.853516 794.899719,287.495789 794.916260,291.877960 
	C795.044495,325.875061 795.096985,359.874542 794.749939,393.868927 
	C794.703491,398.416290 793.166138,403.466187 790.816711,407.381866 
	C781.076538,423.615601 770.805054,439.532257 760.645020,455.512177 
	C739.115540,489.374084 717.530457,523.200684 695.974976,557.046143 
	C688.240356,569.190735 680.334778,581.232483 672.883972,593.549072 
	C669.295471,599.481140 670.743408,602.753113 676.812500,605.993408 
	C680.368774,607.891968 683.754822,610.109436 687.233032,612.192810 
	C686.551880,613.467346 686.355530,613.915039 686.091125,614.318115 
	C671.469116,636.607910 656.824890,658.883179 642.226196,681.188232 
	C638.639465,686.668274 639.100098,690.485535 644.058533,694.566589 
	C647.106812,697.075439 650.434570,699.272095 653.772522,701.395630 
	C660.261108,705.523560 662.693298,704.909119 666.670044,698.656616 
	C681.682251,675.053589 696.633118,651.410828 711.781006,627.894958 
	C734.369507,592.828247 757.094177,557.849182 779.791260,522.852478 
	C782.984924,517.928223 786.349731,513.114929 789.635315,508.250244 
	C790.021729,508.362000 790.408142,508.473724 790.794556,508.585449 
	C790.794556,531.234863 790.794556,553.884338 790.794556,577.033325 
	C793.780640,574.273438 796.634766,572.397705 798.477539,569.803589 
	C807.774353,556.716431 816.789612,543.429504 825.938721,530.237000 
	C836.215332,515.418701 846.600647,500.675079 856.787537,485.795532 
	C860.205750,480.802643 864.509583,478.759155 870.615112,478.931946 
	C877.698547,479.132385 884.809326,478.362488 892.293091,478.746307 
	C892.861633,477.412811 893.925781,476.079956 893.927551,474.745667 
	C894.009705,413.399109 894.005554,352.052460 893.961121,290.705841 
	C893.960022,289.182648 893.392944,287.659882 892.144836,286.048859 
z"/>
<path fill="#000000" opacity="1.000000" stroke="none" 
	d="
M490.999359,283.053680 
	C491.497711,286.451233 493.860443,287.048431 496.771484,287.032471 
	C504.535980,286.989838 512.300903,287.026398 520.533081,287.484558 
	C521.000244,411.668549 521.005005,535.399475 520.996765,659.130432 
	C520.994568,692.435547 520.953003,725.740662 520.929504,759.045776 
	C520.929504,759.045776 521.045959,759.043762 520.574097,759.015930 
	C495.779968,759.040161 471.457764,759.092224 447.135559,759.144287 
	C441.414520,759.430176 435.665161,759.471802 429.987335,760.130249 
	C427.916260,760.370361 426.015289,762.077515 423.635681,763.727051 
	C423.222565,791.506592 423.210419,818.674438 423.198303,845.842285 
	C423.126129,862.981873 423.026672,880.121338 422.989960,897.260986 
	C422.957153,912.576111 423.016357,927.891479 422.989807,943.206604 
	C422.976440,950.930603 420.899689,953.000610 413.291382,952.996277 
	C383.660187,952.979492 354.018219,952.466431 324.402283,953.125671 
	C309.558441,953.456055 294.365143,964.420837 293.945984,981.764954 
	C293.424225,1003.354431 293.333069,1024.954102 292.869812,1046.545288 
	C292.681152,1055.339478 294.164062,1055.769043 302.938202,1056.917358 
	C306.212158,1057.345947 309.603790,1057.201538 312.913239,1056.947388 
	C316.729919,1056.654541 318.171997,1057.868286 318.086853,1061.934814 
	C317.835876,1073.915405 317.956512,1085.904785 318.035522,1097.890137 
	C318.047119,1099.646606 318.623901,1101.399414 318.969574,1103.576904 
	C213.044693,1104.000000 107.089386,1104.000000 1.000000,1104.000000 
	C1.000000,864.645813 1.000000,625.291565 1.000000,385.468689 
	C8.286311,384.739258 15.591136,384.100586 22.847254,384.456085 
	C24.929697,384.558105 27.145037,387.309265 28.756535,389.287964 
	C29.506443,390.208740 28.994596,392.185852 28.994886,393.684143 
	C29.001572,428.184052 29.100605,462.684570 28.904074,497.183350 
	C28.870066,503.153381 30.951435,507.712341 35.019306,511.701782 
	C55.224461,531.517273 75.546402,551.215637 95.589272,571.194031 
	C111.617729,587.171021 127.319893,603.475647 143.138840,619.662231 
	C155.463470,632.273254 167.723373,644.947632 180.083694,657.523438 
	C181.156189,658.614685 182.799728,659.920776 184.118164,659.858521 
	C189.528305,659.603088 193.098404,662.397278 196.571350,666.002319 
	C203.620911,673.320007 210.928329,680.388489 218.031906,687.655090 
	C225.817902,695.619812 233.429459,703.755371 241.235291,711.700195 
	C249.594818,720.208496 253.347870,720.163574 261.950256,711.796692 
	C271.250824,702.750793 271.188995,702.811584 262.133270,693.604797 
	C248.852646,680.102600 235.646423,666.526917 222.465210,652.927551 
	C219.372726,649.737000 216.329926,646.461060 213.649017,642.932068 
	C212.876038,641.914551 212.795593,639.418579 213.519806,638.392395 
	C215.799973,635.161560 218.539139,632.238159 221.241791,629.326843 
	C223.792847,626.578796 223.992767,623.800110 221.536484,621.050110 
	C217.131165,616.118042 212.739227,611.159607 208.086639,606.464966 
	C166.950989,564.957336 125.703568,523.560242 84.642387,481.979156 
	C78.292908,475.549286 76.939156,467.243408 78.318497,458.447327 
	C78.650604,456.329437 78.964447,454.179932 78.970245,452.044098 
	C79.020912,433.378906 78.999405,414.713501 79.000320,396.048157 
	C79.000381,394.714844 78.952965,393.378662 79.022011,392.048706 
	C79.365936,385.424438 79.796272,385.015564 86.257065,385.000610 
	C90.257004,384.991364 94.263611,385.131744 98.255302,384.947113 
	C103.831024,384.689178 106.004578,382.310028 106.004333,376.917664 
	C106.001549,315.584473 106.001419,254.251266 106.469879,192.453156 
	C191.352737,191.992172 275.766296,191.989212 360.179871,192.002853 
	C403.468262,192.009857 446.756622,192.046509 490.045013,192.069778 
	C490.045013,192.069778 490.044495,191.955551 490.017456,192.426712 
	C490.009064,221.459000 490.013458,250.020172 490.086853,278.581177 
	C490.090698,280.072784 490.681702,281.562866 490.999359,283.053680 
M349.802338,348.700684 
	C349.780518,335.890747 349.758667,323.080811 349.966125,309.323334 
	C349.974518,302.996216 349.860626,296.665558 350.042786,290.343445 
	C350.134003,287.177246 349.158325,285.939789 345.816589,285.953400 
	C313.844757,286.083740 281.872375,286.081604 249.143616,286.513550 
	C249.095795,287.010040 249.006165,287.506500 249.006104,288.002991 
	C248.997330,350.478973 248.990143,412.954987 249.031464,475.430939 
	C249.032227,476.591949 249.613342,477.752594 250.869247,478.966919 
	C258.866760,479.025757 266.876648,478.852753 274.854584,479.278595 
	C277.392334,479.414032 280.604462,480.471832 282.192383,482.269623 
	C286.715057,487.390228 290.749847,492.978455 294.638733,498.615753 
	C310.085907,521.008179 325.308716,543.556030 340.863831,565.872620 
	C343.474152,569.617676 345.685028,574.528320 352.202942,574.839905 
	C352.202942,553.272827 352.202942,531.923035 352.202942,510.573212 
	C354.463318,511.900665 355.681641,513.530090 356.792297,515.229858 
	C378.808350,548.924622 400.793884,582.639221 422.829498,616.321167 
	C429.080597,625.876160 435.586884,635.265259 441.771576,644.862366 
	C453.951843,663.763000 465.969452,682.768433 478.104919,701.698120 
	C480.053406,704.737488 483.385101,705.037476 485.978607,703.549438 
	C491.340424,700.473206 496.387604,696.816528 501.397125,693.169067 
	C504.868225,690.641663 505.683685,687.335266 503.209290,683.492249 
	C489.974335,662.937256 476.856293,642.306152 463.508606,621.824707 
	C456.621399,611.256592 456.443970,611.372131 467.388916,605.496460 
	C472.717590,602.635803 474.121918,598.393982 471.018524,593.479980 
	C462.487579,579.971924 453.769348,566.582092 445.227142,553.080994 
	C427.717712,525.406799 410.378235,497.624634 392.771851,470.012482 
	C378.839966,448.163025 364.581451,426.521942 350.588257,404.711182 
	C349.595032,403.163086 349.207123,400.982452 349.190582,399.090240 
	C349.044769,382.427216 349.046997,365.762878 349.802338,348.700684 
z"/>
<path fill="#000000" opacity="1.000000" stroke="none" 
	d="
M1142.098022,94.118729 
	C1139.433838,94.079239 1136.769653,94.005295 1134.105469,94.005196 
	C982.346741,93.999657 830.588013,93.990677 678.829285,94.040260 
	C673.546875,94.041985 668.267273,94.808792 662.981262,94.891998 
	C659.130188,94.952621 654.897156,95.339012 652.972534,89.787033 
	C652.981323,59.630722 652.990662,30.315361 653.000000,1.000000 
	C816.210693,1.000000 979.421387,1.000000 1143.000000,1.000000 
	C1143.000000,31.686581 1143.000000,62.374634 1142.772583,93.546150 
	C1142.545166,94.029617 1142.098022,94.118729 1142.098022,94.118729 
z"/>
<path fill="#000000" opacity="1.000000" stroke="none" 
	d="
M490.125427,92.900009 
	C490.125427,92.900009 489.982117,93.367111 489.530334,93.672287 
	C326.385712,93.984978 163.692856,93.992493 1.000000,94.000000 
	C1.000000,63.023312 1.000000,32.046623 1.000000,1.000000 
	C163.687561,1.000000 326.375122,1.000000 489.530945,1.468742 
	C490.041290,32.258324 490.083374,62.579166 490.125427,92.900009 
z"/>
<path fill="#000000" opacity="1.000000" stroke="none" 
	d="
M405.468658,1104.000000 
	C405.000183,1090.177612 405.167603,1076.351929 404.902863,1062.534546 
	C404.818970,1058.158691 406.052032,1056.878174 410.490601,1056.902100 
	C443.977905,1057.082275 477.466583,1057.000000 510.954834,1057.000000 
	C584.429077,1057.000000 657.903320,1056.999023 731.377563,1057.001587 
	C737.983704,1057.001831 737.994019,1057.012451 737.997742,1063.399658 
	C738.004333,1074.895630 737.956055,1086.391846 738.039307,1097.887207 
	C738.052002,1099.644409 738.645813,1101.397217 738.985413,1103.576050 
	C627.979126,1104.000000 516.958191,1104.000000 405.468658,1104.000000 
z"/>
<path fill="#9A9F9E" opacity="1.000000" stroke="none" 
	d="
M1.000000,94.250000 
	C163.692856,93.992493 326.385712,93.984978 489.542542,93.916283 
	C487.652496,94.236649 485.298584,94.951431 482.944366,94.952202 
	C322.607574,95.004677 162.270782,94.999817 1.466985,94.999924 
	C1.000000,95.000000 1.000000,94.500000 1.000000,94.250000 
z"/>
<path fill="#9A9F9E" opacity="1.000000" stroke="none" 
	d="
M1142.061401,94.578568 
	C1142.098022,94.118729 1142.545166,94.029617 1142.772583,94.014809 
	C1143.000000,190.354233 1143.000000,286.708466 1143.000000,383.531342 
	C1143.000000,384.000000 1142.545166,383.970398 1142.321533,383.925842 
	C1142.060913,370.222992 1141.991577,356.564667 1141.991821,342.906372 
	C1141.994019,260.283722 1142.012085,177.661057 1142.061401,94.578568 
z"/>
<path fill="#747979" opacity="1.000000" stroke="none" 
	d="
M490.311432,92.543030 
	C490.083374,62.579166 490.041290,32.258324 489.999603,1.468742 
	C543.687561,1.000000 597.375122,1.000000 651.491577,1.278927 
	C651.898010,1.744344 651.875549,1.930834 651.853149,2.117324 
	C599.887512,2.079237 547.921753,2.085790 495.956482,1.925513 
	C491.379456,1.911396 490.853424,4.099749 490.865143,7.784363 
	C490.947510,33.767380 490.917786,59.750793 490.889862,85.734039 
	C490.887573,87.884850 490.634155,90.035385 490.311432,92.543030 
z"/>
<path fill="#9A9F9E" opacity="1.000000" stroke="none" 
	d="
M651.902954,2.575459 
	C651.875549,1.930834 651.898010,1.744344 651.960205,1.278927 
	C652.000000,1.000000 652.500000,1.000000 652.750000,1.000000 
	C652.990662,30.315361 652.981323,59.630722 652.909973,89.402016 
	C652.540527,87.780533 651.969421,85.703629 651.965454,83.625633 
	C651.914246,56.761715 651.943665,29.897636 651.902954,2.575459 
z"/>
<path fill="#8F9392" opacity="1.000000" stroke="none" 
	d="
M621.713013,287.295013 
	C622.008606,442.187775 622.004395,597.376099 621.998840,752.564453 
	C621.998779,754.729004 621.980957,756.893555 621.963501,759.526367 
	C621.637085,758.073425 621.040405,756.152283 621.039856,754.231079 
	C620.996765,600.333435 620.998962,446.435760 621.017334,292.538086 
	C621.017517,290.888916 621.275452,289.239777 621.713013,287.295013 
z"/>
<path fill="#9FA4A3" opacity="1.000000" stroke="none" 
	d="
M521.268555,758.780151 
	C520.953003,725.740662 520.994568,692.435547 520.996765,659.130432 
	C521.005005,535.399475 521.000244,411.668549 521.001831,287.468994 
	C521.335388,288.720428 521.957886,290.440430 521.958374,292.160583 
	C522.002747,445.961212 522.000732,599.761841 521.983154,753.562439 
	C521.982971,755.213135 521.738159,756.863770 521.268555,758.780151 
z"/>
<path fill="#9A9F9E" opacity="1.000000" stroke="none" 
	d="
M489.772522,191.737762 
	C446.756622,192.046509 403.468262,192.009857 360.179871,192.002853 
	C275.766296,191.989212 191.352737,191.992172 106.470703,191.983124 
	C107.903877,191.652130 109.805412,191.041763 111.707176,191.041077 
	C235.821838,190.996063 359.936493,190.998688 484.051178,191.017227 
	C485.867493,191.017487 487.683777,191.270630 489.772522,191.737762 
z"/>
<path fill="#747979" opacity="1.000000" stroke="none" 
	d="
M952.040466,190.810577 
	C951.048157,190.882553 950.055908,191.017807 949.063599,191.017502 
	C874.723328,190.993973 800.383118,190.959732 725.584961,190.877182 
	C726.746155,190.568649 728.365051,190.083542 729.984375,190.082291 
	C803.213196,190.025391 876.442017,190.010773 949.670837,189.995010 
	C950.169250,189.994904 950.667664,190.048004 951.623291,190.293213 
	C952.080505,190.510147 952.040466,190.810593 952.040466,190.810577 
z"/>
<path fill="#9FA4A3" opacity="1.000000" stroke="none" 
	d="
M1114.658691,384.331451 
	C1114.881470,420.556458 1114.837524,457.102905 1114.396729,493.841980 
	C1114.002319,458.890961 1114.000610,423.747345 1114.023315,388.603699 
	C1114.024170,387.286713 1114.263672,385.969849 1114.658691,384.331451 
z"/>
<path fill="#9A9F9E" opacity="1.000000" stroke="none" 
	d="
M491.007996,282.581543 
	C490.681702,281.562866 490.090698,280.072784 490.086853,278.581177 
	C490.013458,250.020172 490.009064,221.459000 489.960327,192.426361 
	C490.285889,193.989624 490.945831,196.023575 490.951233,198.059265 
	C491.025726,226.075851 491.010132,254.092667 491.007996,282.581543 
z"/>
<path fill="#747979" opacity="1.000000" stroke="none" 
	d="
M423.337006,845.471802 
	C423.210419,818.674438 423.222565,791.506592 423.609283,764.105286 
	C423.937531,788.965027 423.899170,814.058289 423.829254,839.151428 
	C423.823730,841.135071 423.598724,843.117981 423.337006,845.471802 
z"/>
<path fill="#8F9392" opacity="1.000000" stroke="none" 
	d="
M952.504150,190.861053 
	C952.040466,190.810593 952.080505,190.510147 952.094727,190.359772 
	C978.172302,190.121857 1004.235596,190.029724 1030.298950,189.964508 
	C1031.276733,189.962067 1032.255005,190.220978 1033.551880,190.613785 
	C1006.903076,190.883484 979.935425,190.897507 952.504150,190.861053 
z"/>
<path fill="#8F9392" opacity="1.000000" stroke="none" 
	d="
M1064.397949,469.559784 
	C1064.121094,444.275024 1064.102783,418.673279 1064.133301,392.615417 
	C1064.434814,393.441559 1064.903320,394.722992 1064.908325,396.006226 
	C1064.999756,419.437897 1065.040649,442.869812 1065.064819,466.301697 
	C1065.065796,467.281921 1064.798706,468.262390 1064.397949,469.559784 
z"/>
<path fill="#9A9F9E" opacity="1.000000" stroke="none" 
	d="
M447.455841,759.393066 
	C471.457764,759.092224 495.779968,759.040161 520.573669,758.957642 
	C520.337463,759.267334 519.629089,759.905762 518.922058,759.904297 
	C495.206665,759.854492 471.491425,759.743713 447.455841,759.393066 
z"/>
<path fill="#9A9F9E" opacity="1.000000" stroke="none" 
	d="
M652.682373,191.279327 
	C652.973755,213.977524 652.946472,236.955048 652.877319,260.389709 
	C652.588806,259.565643 652.131531,258.285217 652.127075,257.003174 
	C652.053467,236.007812 652.032959,215.012253 652.022888,194.016724 
	C652.022522,193.197403 652.245056,192.378006 652.682373,191.279327 
z"/>
<path fill="#8F9392" opacity="1.000000" stroke="none" 
	d="
M849.955200,986.375366 
	C850.359070,986.558838 851.023560,987.215637 851.022278,987.871216 
	C850.979248,1010.458069 850.873291,1033.044922 850.389160,1055.840332 
	C849.969788,1032.982056 849.937622,1009.915100 849.955200,986.375366 
z"/>
<path fill="#747979" opacity="1.000000" stroke="none" 
	d="
M1062.555908,384.641113 
	C1054.800659,384.831116 1046.703735,384.802399 1038.376953,384.424866 
	C1046.169434,384.191498 1054.192017,384.306976 1062.555908,384.641113 
z"/>
<path fill="#4A5050" opacity="1.000000" stroke="none" 
	d="
M891.908264,478.013794 
	C884.809326,478.362488 877.698547,479.132385 870.615112,478.931946 
	C864.509583,478.759155 860.205750,480.802643 856.787537,485.795532 
	C846.600647,500.675079 836.215332,515.418701 825.938721,530.237000 
	C816.789612,543.429504 807.774353,556.716431 798.477539,569.803589 
	C796.634766,572.397705 793.780640,574.273438 790.794556,577.033325 
	C790.794556,553.884338 790.794556,531.234863 790.794556,508.585449 
	C790.408142,508.473724 790.021729,508.362000 789.635315,508.250244 
	C786.349731,513.114929 782.984924,517.928223 779.791260,522.852478 
	C757.094177,557.849182 734.369507,592.828247 711.781006,627.894958 
	C696.633118,651.410828 681.682251,675.053589 666.670044,698.656616 
	C662.693298,704.909119 660.261108,705.523560 653.772522,701.395630 
	C650.434570,699.272095 647.106812,697.075439 644.058533,694.566589 
	C639.100098,690.485535 638.639465,686.668274 642.226196,681.188232 
	C656.824890,658.883179 671.469116,636.607910 686.091125,614.318115 
	C686.355530,613.915039 686.551880,613.467346 687.233032,612.192810 
	C683.754822,610.109436 680.368774,607.891968 676.812500,605.993408 
	C670.743408,602.753113 669.295471,599.481140 672.883972,593.549072 
	C680.334778,581.232483 688.240356,569.190735 695.974976,557.046143 
	C717.530457,523.200684 739.115540,489.374084 760.645020,455.512177 
	C770.805054,439.532257 781.076538,423.615601 790.816711,407.381866 
	C793.166138,403.466187 794.703491,398.416290 794.749939,393.868927 
	C795.096985,359.874542 795.044495,325.875061 794.916260,291.877960 
	C794.899719,287.495789 795.860291,285.853516 800.650696,285.890289 
	C831.147400,286.124390 861.646484,286.033020 892.592407,286.552063 
	C893.027649,348.482605 893.026794,409.909943 892.956970,471.337250 
	C892.954407,473.563171 892.273193,475.788269 891.908264,478.013794 
z"/>
<path fill="#858989" opacity="1.000000" stroke="none" 
	d="
M892.100708,478.380035 
	C892.273193,475.788269 892.954407,473.563171 892.956970,471.337250 
	C893.026794,409.909943 893.027649,348.482605 893.064880,286.596069 
	C893.392944,287.659882 893.960022,289.182648 893.961121,290.705841 
	C894.005554,352.052460 894.009705,413.399109 893.927551,474.745667 
	C893.925781,476.079956 892.861633,477.412811 892.100708,478.380035 
z"/>
<path fill="#4B5151" opacity="1.000000" stroke="none" 
	d="
M249.900146,286.117493 
	C281.872375,286.081604 313.844757,286.083740 345.816589,285.953400 
	C349.158325,285.939789 350.134003,287.177246 350.042786,290.343445 
	C349.860626,296.665558 349.974518,302.996216 349.824219,310.183258 
	C349.456696,323.728424 349.231079,336.413696 349.005432,349.098938 
	C349.046997,365.762878 349.044769,382.427216 349.190582,399.090240 
	C349.207123,400.982452 349.595032,403.163086 350.588257,404.711182 
	C364.581451,426.521942 378.839966,448.163025 392.771851,470.012482 
	C410.378235,497.624634 427.717712,525.406799 445.227142,553.080994 
	C453.769348,566.582092 462.487579,579.971924 471.018524,593.479980 
	C474.121918,598.393982 472.717590,602.635803 467.388916,605.496460 
	C456.443970,611.372131 456.621399,611.256592 463.508606,621.824707 
	C476.856293,642.306152 489.974335,662.937256 503.209290,683.492249 
	C505.683685,687.335266 504.868225,690.641663 501.397125,693.169067 
	C496.387604,696.816528 491.340424,700.473206 485.978607,703.549438 
	C483.385101,705.037476 480.053406,704.737488 478.104919,701.698120 
	C465.969452,682.768433 453.951843,663.763000 441.771576,644.862366 
	C435.586884,635.265259 429.080597,625.876160 422.829498,616.321167 
	C400.793884,582.639221 378.808350,548.924622 356.792297,515.229858 
	C355.681641,513.530090 354.463318,511.900665 352.202942,510.573212 
	C352.202942,531.923035 352.202942,553.272827 352.202942,574.839905 
	C345.685028,574.528320 343.474152,569.617676 340.863831,565.872620 
	C325.308716,543.556030 310.085907,521.008179 294.638733,498.615753 
	C290.749847,492.978455 286.715057,487.390228 282.192383,482.269623 
	C280.604462,480.471832 277.392334,479.414032 274.854584,479.278595 
	C266.876648,478.852753 258.866760,479.025757 250.435364,478.478455 
	C250.004517,463.832520 250.017822,449.674988 250.008728,435.517487 
	C249.976685,385.717499 249.936966,335.917480 249.900146,286.117493 
z"/>
<path fill="#9FA4A3" opacity="1.000000" stroke="none" 
	d="
M249.521881,286.315521 
	C249.936966,335.917480 249.976685,385.717499 250.008728,435.517487 
	C250.017822,449.674988 250.004517,463.832520 249.962585,478.451721 
	C249.613342,477.752594 249.032227,476.591949 249.031464,475.430939 
	C248.990143,412.954987 248.997330,350.478973 249.006104,288.002991 
	C249.006165,287.506500 249.095795,287.010040 249.521881,286.315521 
z"/>
<path fill="#8F9392" opacity="1.000000" stroke="none" 
	d="
M349.403900,348.899811 
	C349.231079,336.413696 349.456696,323.728424 349.709595,310.657043 
	C349.758667,323.080811 349.780518,335.890747 349.403900,348.899811 
z"/>
</svg>