<svg version="1.1" id="Layer_1" xmlns="http://www.w3.org/2000/svg" xmlns:xlink="http://www.w3.org/1999/xlink" x="0px" y="0px"
	 width="100%" viewBox="0 0 180 180" enable-background="new 0 0 180 180" xml:space="preserve">
<path fill="#000000" opacity="1.000000" stroke="none" 
	d="
M95.000000,181.000000 
	C63.333336,181.000000 32.166672,181.000000 1.000004,181.000000 
	C1.000003,121.000008 1.000003,61.000011 1.000001,1.000012 
	C60.999989,1.000008 120.999977,1.000008 180.999969,1.000004 
	C180.999985,60.999989 180.999985,120.999977 181.000000,180.999985 
	C152.500000,181.000000 124.000000,181.000000 95.000000,181.000000 
M82.654404,6.000082 
	C78.915253,6.416235 75.070137,6.410938 71.454895,7.319906 
	C53.742725,11.773218 38.573357,20.388161 26.187313,34.150928 
	C13.737524,47.984524 6.502337,64.020790 5.180398,82.320930 
	C4.070472,97.686081 5.502544,112.803986 12.461302,127.246567 
	C20.952194,144.869034 33.629997,158.038528 50.643047,167.194885 
	C68.591431,176.854645 87.894867,177.762177 107.535957,174.954559 
	C126.161766,172.292053 141.375748,163.160492 154.207550,149.555161 
	C166.587234,136.429199 174.157120,121.315582 176.187698,103.199646 
	C177.653214,90.125015 177.251343,77.391930 173.379959,64.813370 
	C168.790710,49.902451 160.235504,37.640732 148.754532,27.170433 
	C139.193649,18.451204 128.125992,12.842264 115.894066,8.894050 
	C105.259933,5.461572 94.451225,6.100439 82.654404,6.000082 
z"/>
<path fill="#A202FF" opacity="1.000000" stroke="none" 
	d="
M83.137764,6.000158 
	C94.451225,6.100439 105.259933,5.461572 115.894066,8.894050 
	C128.125992,12.842264 139.193649,18.451204 148.754532,27.170433 
	C160.235504,37.640732 168.790710,49.902451 173.379959,64.813370 
	C177.251343,77.391930 177.653214,90.125015 176.187698,103.199646 
	C174.157120,121.315582 166.587234,136.429199 154.207550,149.555161 
	C141.375748,163.160492 126.161766,172.292053 107.535957,174.954559 
	C87.894867,177.762177 68.591431,176.854645 50.643047,167.194885 
	C33.629997,158.038528 20.952194,144.869034 12.461302,127.246567 
	C5.502544,112.803986 4.070472,97.686081 5.180398,82.320930 
	C6.502337,64.020790 13.737524,47.984524 26.187313,34.150928 
	C38.573357,20.388161 53.742725,11.773218 71.454895,7.319906 
	C75.070137,6.410938 78.915253,6.416235 83.137764,6.000158 
M105.493164,66.453354 
	C105.493164,53.056103 105.493164,39.658852 105.493164,26.331524 
	C95.584244,26.331524 86.531425,26.331524 76.934433,26.331524 
	C76.934433,43.433479 76.934433,60.154671 76.934433,77.402481 
	C59.656013,77.402481 42.926682,77.402481 26.323978,77.402481 
	C26.323978,87.025803 26.323978,96.102867 26.323978,105.754257 
	C43.417271,105.754257 60.137081,105.754257 77.400116,105.754257 
	C77.400116,123.064529 77.400116,139.792603 77.400116,156.401215 
	C87.011147,156.401215 96.055328,156.401215 105.707130,156.401215 
	C105.707130,139.254929 105.707130,122.533195 105.707130,105.209549 
	C123.035645,105.209549 139.749695,105.209549 156.417587,105.209549 
	C156.417587,95.538254 156.417587,86.489830 156.417587,76.908035 
	C139.291351,76.908035 122.574059,76.908035 105.493324,76.908035 
	C105.493324,73.387810 105.493324,70.410225 105.493164,66.453354 
z"/>
<path fill="#FEFCFF" opacity="1.000000" stroke="none" 
	d="
M105.493240,66.942993 
	C105.493324,70.410225 105.493324,73.387810 105.493324,76.908035 
	C122.574059,76.908035 139.291351,76.908035 156.417587,76.908035 
	C156.417587,86.489830 156.417587,95.538254 156.417587,105.209549 
	C139.749695,105.209549 123.035645,105.209549 105.707130,105.209549 
	C105.707130,122.533195 105.707130,139.254929 105.707130,156.401215 
	C96.055328,156.401215 87.011147,156.401215 77.400116,156.401215 
	C77.400116,139.792603 77.400116,123.064529 77.400116,105.754257 
	C60.137081,105.754257 43.417271,105.754257 26.323978,105.754257 
	C26.323978,96.102867 26.323978,87.025803 26.323978,77.402481 
	C42.926682,77.402481 59.656013,77.402481 76.934433,77.402481 
	C76.934433,60.154671 76.934433,43.433479 76.934433,26.331524 
	C86.531425,26.331524 95.584244,26.331524 105.493164,26.331524 
	C105.493164,39.658852 105.493164,53.056103 105.493240,66.942993 
z"/>
</svg>