<svg version="1.1" id="Layer_1" xmlns="http://www.w3.org/2000/svg" xmlns:xlink="http://www.w3.org/1999/xlink" x="0px" y="0px"
	 width="100%" viewBox="0 0 1024 1024" enable-background="new 0 0 1024 1024" xml:space="preserve">
<path fill="#DADFDC" opacity="1.000000" stroke="none" 
	d="
M573.000000,1025.000000 
	C532.312439,1025.000000 491.624878,1025.000000 450.795776,1024.649414 
	C449.649261,1023.867004 448.676514,1023.175476 447.634033,1023.046143 
	C441.478455,1022.282776 435.198181,1022.161011 429.160431,1020.878906 
	C410.061768,1016.823364 390.956940,1012.726013 372.030243,1007.948608 
	C344.976654,1001.119934 318.974426,991.245605 293.743530,979.326355 
	C265.806915,966.128845 238.649139,951.462952 213.972031,932.838684 
	C194.571136,918.196350 175.558594,902.907227 157.497269,886.656494 
	C136.182358,867.478271 116.941269,846.082703 100.390999,822.640381 
	C85.864166,802.064148 71.530800,781.160400 59.393520,759.143494 
	C47.935417,738.358643 38.733051,716.224426 29.825804,694.164001 
	C16.426651,660.978455 7.879960,626.378296 2.920034,590.911316 
	C2.820379,590.198669 1.663604,589.633789 1.000005,589.000000 
	C1.000000,538.312439 1.000000,487.624878 1.345987,436.795044 
	C2.136416,434.484650 2.548335,432.309296 3.030444,430.149597 
	C7.004972,412.344849 10.708055,394.473450 15.041635,376.756348 
	C21.829937,349.003448 31.861576,322.377594 43.880619,296.471191 
	C57.236561,267.683167 72.478920,239.906769 91.422585,214.472733 
	C105.849930,195.102371 121.197289,176.301117 137.426270,158.418213 
	C157.573090,136.218170 180.365952,116.747383 204.495392,98.852951 
	C223.893036,84.467613 244.054260,71.301682 265.392365,60.066135 
	C280.353577,52.188320 295.704224,45.006092 311.126495,38.058262 
	C333.927490,27.786276 357.674713,19.970675 381.947571,14.184033 
	C401.288605,9.573138 421.034515,6.663283 440.583160,2.907065 
	C441.156433,2.796913 441.532166,1.658808 442.000000,0.999995 
	C488.020905,1.000000 534.041809,1.000000 580.204895,1.346699 
	C581.182861,2.126082 581.982178,2.828890 582.860352,2.947565 
	C588.514343,3.711630 594.278381,3.915421 599.833496,5.108139 
	C615.764587,8.528635 631.674255,12.088641 647.480774,16.040161 
	C675.026733,22.926460 701.573975,32.712780 727.279846,44.738270 
	C755.852905,58.105080 783.169617,73.623322 808.939392,91.913223 
	C829.240051,106.321411 848.432434,122.038376 866.468750,139.128403 
	C876.694275,148.817490 886.366699,159.120972 895.880981,169.520355 
	C903.497498,177.845398 910.875000,186.447159 917.699280,195.427185 
	C933.652710,216.420380 948.511292,238.142395 961.167664,261.361908 
	C974.140930,285.162903 986.317017,309.327545 994.912964,335.055054 
	C1001.485962,354.728027 1007.327393,374.668396 1012.770508,394.686646 
	C1015.648865,405.272186 1017.212708,416.241089 1018.945862,427.104584 
	C1020.586853,437.389893 1021.639648,447.768372 1023.078064,458.088165 
	C1023.177429,458.800873 1024.334717,459.366150 1025.000000,460.000000 
	C1025.000000,494.687561 1025.000000,529.375122 1024.645508,564.203613 
	C1023.862244,565.186096 1023.168640,565.990356 1023.044250,566.874634 
	C1021.322144,579.122437 1020.393250,591.531494 1017.857117,603.604248 
	C1013.414917,624.750916 1008.665100,645.880432 1002.821594,666.673523 
	C995.451294,692.899658 985.044800,718.116638 972.722656,742.383179 
	C960.872314,765.720459 947.565369,788.242188 932.272644,809.619934 
	C918.270935,829.192871 903.495789,848.118164 886.818481,865.369934 
	C872.707031,879.967468 857.646362,893.721680 842.275574,907.004089 
	C830.238892,917.405273 817.304932,926.819397 804.376526,936.125916 
	C783.109375,951.435120 760.551453,964.716919 736.718994,975.587158 
	C718.730042,983.792175 700.592041,991.938354 681.890198,998.240540 
	C661.017517,1005.274231 639.564392,1010.750183 618.111023,1015.838135 
	C603.939148,1019.199158 589.317627,1020.657288 574.915344,1023.074402 
	C574.189636,1023.196167 573.634521,1024.334839 573.000000,1025.000000 
M646.444946,207.295105 
	C622.012878,207.296661 597.573364,206.975739 573.154419,207.542664 
	C567.548340,207.672821 566.857788,206.213379 566.921814,201.480133 
	C567.135681,185.679077 567.002075,169.873322 567.001648,154.069366 
	C567.001587,151.296585 567.001587,148.523819 567.001587,145.508362 
	C530.704468,145.508362 495.046021,145.508362 458.778320,145.508362 
	C458.778320,166.313339 458.778320,186.681686 458.778320,207.595428 
	C349.536743,207.595428 240.904526,207.595428 132.411591,207.595428 
	C132.411591,272.323975 132.411591,336.492249 132.411591,401.001984 
	C137.302078,401.001984 141.802383,401.263977 146.256912,400.924835 
	C150.322754,400.615265 151.286377,402.125641 151.260696,406.025146 
	C151.107407,429.303284 151.320145,452.584015 151.135056,475.861694 
	C151.102844,479.913635 152.406616,482.700745 155.201126,485.427704 
	C168.727615,498.627197 182.250137,511.835846 195.523453,525.288513 
	C214.333542,544.352722 232.916977,563.640442 251.630981,582.799805 
	C252.517197,583.707092 253.908386,585.092712 254.761078,584.901672 
	C259.876190,583.755737 262.116028,587.477173 264.925751,590.363342 
	C275.125671,600.840881 285.272125,611.373230 295.657776,621.663696 
	C296.888306,622.882996 299.980438,623.719177 301.320892,623.022766 
	C304.175659,621.539429 306.346771,618.799683 308.980743,616.817566 
	C312.468628,614.192932 311.687714,611.733276 309.093414,609.118958 
	C300.532776,600.492065 291.928650,591.907410 283.449738,583.200806 
	C279.791992,579.444946 276.400208,575.430054 272.874420,571.518250 
	C275.047791,569.108887 276.803070,566.861572 278.867432,564.947632 
	C281.706482,562.315491 281.573914,560.166565 278.852600,557.433594 
	C269.961700,548.504578 261.322693,539.325134 252.451691,530.375854 
	C231.492493,509.231873 210.425034,488.195160 189.485123,467.032166 
	C186.602829,464.119202 184.048325,460.925873 184.133011,456.292664 
	C184.433945,439.828247 184.553253,423.360535 184.766708,406.894440 
	C184.791519,404.979309 184.974670,403.066223 185.094376,400.978485 
	C189.379379,400.978485 193.041229,400.851868 196.690552,401.011536 
	C200.945175,401.197662 202.891098,399.915100 202.864700,395.085114 
	C202.669937,359.440643 202.744766,323.794678 202.735275,288.149200 
	C202.733871,282.883209 202.735077,277.617218 202.735077,272.290100 
	C288.448029,272.290100 373.483032,272.290100 458.998199,272.290100 
	C458.998199,274.480103 458.998199,276.275513 458.998199,278.070923 
	C458.998260,295.736847 459.082214,313.403473 458.930359,331.068085 
	C458.898468,334.775848 460.108673,336.146088 463.814606,335.990479 
	C469.067627,335.769928 474.336792,335.934540 479.689941,335.934540 
	C479.689941,441.327362 479.689941,545.902222 479.689941,651.072266 
	C477.608948,651.072266 475.829254,651.074097 474.049530,651.071960 
	C456.067963,651.050171 438.084351,651.167419 420.106171,650.909668 
	C415.466949,650.843201 414.075714,652.361206 414.096802,656.901184 
	C414.210571,681.370300 414.048645,705.840637 414.016479,730.310547 
	C413.996765,745.293396 414.112122,760.277100 413.943756,775.257996 
	C413.926483,776.796631 412.644592,779.341919 411.489929,779.640015 
	C408.873779,780.315491 405.970734,779.888611 403.184326,779.894287 
	C385.144104,779.931091 367.103424,779.900574 349.063812,780.023621 
	C339.593719,780.088196 328.977966,787.641052 328.290741,796.872437 
	C327.073029,813.230347 327.443207,829.710938 327.408508,846.140747 
	C327.406525,847.091370 329.666138,848.759460 330.975525,848.868774 
	C335.195923,849.221191 339.464203,849.000122 343.999023,849.000122 
	C343.999023,858.676331 344.109100,867.496704 343.942291,876.311890 
	C343.879761,879.614685 345.125214,880.692261 348.322815,880.671814 
	C362.612762,880.580872 376.903961,880.692993 391.194183,880.626343 
	C394.713074,880.609863 398.230133,880.197388 402.185608,879.938293 
	C402.185608,869.311279 402.185608,859.386536 402.185608,849.296875 
	C476.378326,849.296875 550.065369,849.296875 623.998596,849.296875 
	C623.998596,858.517578 624.036377,867.336121 623.975281,876.153931 
	C623.957275,878.756226 624.168457,880.683716 627.613464,880.667114 
	C643.518982,880.590393 659.425415,880.704651 675.331177,880.656250 
	C677.545837,880.649536 679.758911,880.119934 682.145081,879.810059 
	C682.145081,870.475708 682.283569,861.768494 682.070068,853.070007 
	C681.995117,850.015930 682.834717,848.830139 685.939514,848.958984 
	C690.182983,849.135010 694.439209,849.002991 698.995544,849.002991 
	C698.995544,832.352295 699.447632,816.520569 698.853210,800.728271 
	C698.373108,787.971252 685.898254,779.648743 676.832214,779.874390 
	C660.586548,780.278564 644.322021,779.924377 628.065369,779.893188 
	C622.736572,779.882996 617.407776,779.891663 612.001648,779.891663 
	C612.001648,738.310242 611.939270,697.646606 612.088440,656.983704 
	C612.105164,652.413574 610.744629,650.820618 606.119812,650.918884 
	C592.808960,651.201660 579.490051,651.108704 566.174255,651.147339 
	C559.587830,651.166504 553.001282,651.150696 546.387939,651.150696 
	C546.387939,545.570496 546.387939,440.858643 546.387939,336.001495 
	C551.768311,336.001495 556.774414,335.792053 561.753906,336.065857 
	C565.957031,336.296967 567.306152,334.610382 567.225586,330.544159 
	C566.998413,319.082062 567.042419,307.614380 567.006470,296.148834 
	C566.981628,288.238220 567.001709,280.327484 567.001709,272.001770 
	C569.700378,272.001770 571.671875,272.003265 573.643372,272.001556 
	C655.455505,271.930878 737.267578,271.874268 819.079651,271.740173 
	C822.628723,271.734375 824.087341,272.693573 824.070618,276.548218 
	C823.928833,309.200745 823.968628,341.854034 823.955811,374.507111 
	C823.952393,383.198120 823.955322,391.889130 823.955322,401.104279 
	C830.182617,401.104279 835.583069,401.104279 841.129395,401.104279 
	C841.307983,403.577515 841.565430,405.533997 841.572144,407.491333 
	C841.623840,422.575623 841.527283,437.661224 841.698975,452.743896 
	C841.759521,458.060272 841.786194,462.998047 837.574768,467.211975 
	C807.488525,497.316406 777.519043,527.537476 747.503235,557.712341 
	C745.232971,559.994629 745.146912,562.259644 747.358887,564.597717 
	C749.523438,566.885803 751.697937,569.164490 754.370667,571.975952 
	C743.513367,583.302246 732.670349,594.685120 721.743835,605.987305 
	C714.338684,613.647156 714.286316,613.596558 722.425964,620.662109 
	C727.817688,625.342346 728.212708,625.178833 733.156921,620.018250 
	C743.839783,608.867920 754.667480,597.856079 765.469177,586.820068 
	C766.251709,586.020569 767.440613,584.784485 768.206787,584.935730 
	C774.097595,586.098328 776.581848,581.482788 779.742798,578.264709 
	C798.241821,559.431458 816.612305,540.472046 835.091064,521.618896 
	C847.311096,509.151306 859.691589,496.840576 871.853210,484.316803 
	C873.345520,482.779968 874.717957,480.388184 874.794128,478.342285 
	C875.127930,469.375793 874.974487,460.390808 874.978699,451.412506 
	C874.986450,434.803894 874.980896,418.195312 874.980896,400.910614 
	C881.263489,400.910614 887.301453,400.910614 893.657593,400.910614 
	C893.657593,336.091125 893.657593,271.948883 893.657593,207.289429 
	C811.463623,207.289429 729.442505,207.289429 646.444946,207.295105 
M377.178619,498.372589 
	C380.363312,503.217743 383.580139,508.042114 386.727448,512.911499 
	C406.849182,544.042847 426.890106,575.226685 447.108856,606.294922 
	C452.824951,615.078247 451.799713,616.805420 461.877716,609.472107 
	C462.947418,608.693726 463.995728,607.803650 465.194550,607.300232 
	C469.165131,605.632812 468.705658,602.664673 467.029816,599.952515 
	C461.202728,590.522156 455.164856,581.220947 449.136658,571.916382 
	C444.972961,565.489685 440.692993,559.138245 436.369537,552.609192 
	C439.090607,550.886658 440.951935,549.480957 443.003662,548.456421 
	C447.427704,546.247253 448.102295,543.768127 445.161224,539.428284 
	C438.853912,530.121216 433.128632,520.421692 427.086273,510.932983 
	C406.466431,478.552185 385.807648,446.196106 365.201843,413.806366 
	C364.738403,413.077911 364.533112,412.060486 364.536530,411.179169 
	C364.568542,402.958435 364.651978,394.737732 364.760651,386.517548 
	C364.941956,372.799194 365.162140,359.081329 365.344482,345.362976 
	C365.389282,341.992157 365.351135,338.620209 365.351135,335.301910 
	C342.559631,335.301910 320.556915,335.301910 298.366211,335.301910 
	C298.366211,378.335907 298.366211,420.879517 298.366211,463.904510 
	C304.025909,463.904510 309.333282,464.103394 314.616699,463.833069 
	C318.017609,463.659119 320.163666,464.890350 322.040833,467.638367 
	C334.743591,486.234253 347.523346,504.777924 360.374237,523.271729 
	C361.698547,525.177551 363.654022,526.644836 365.316650,528.315552 
	C365.791809,528.126038 366.266968,527.936523 366.742126,527.747009 
	C366.742126,513.317566 366.742126,498.888153 366.742126,484.458710 
	C367.085327,484.426910 367.428497,484.395111 367.771698,484.363312 
	C370.750275,488.849518 373.728851,493.335754 377.178619,498.372589 
M575.987366,574.448669 
	C573.564575,578.009277 571.079468,581.529358 568.733887,585.140198 
	C565.398804,590.274353 561.915283,595.342163 559.056274,600.735657 
	C558.286682,602.187439 558.841125,605.423401 560.022949,606.603943 
	C562.549072,609.127563 565.914978,610.797485 568.875793,612.903015 
	C571.637634,614.867126 573.814453,614.285583 575.539062,611.545715 
	C576.948181,609.307129 578.205688,606.971924 579.640991,604.751160 
	C599.851501,573.480713 620.075928,542.219299 640.308899,510.963409 
	C646.273987,501.748657 652.276306,492.558044 658.261536,483.356354 
	C658.645630,483.462494 659.029724,483.568604 659.413818,483.674744 
	C659.413818,498.410522 659.413818,513.146301 659.413818,529.272522 
	C661.516968,527.362610 662.774475,526.571899 663.559631,525.450500 
	C668.505371,518.386353 673.303345,511.218994 678.231201,504.142181 
	C686.839905,491.779114 695.559692,479.492950 704.107544,467.088165 
	C705.912415,464.468933 707.971252,463.615540 711.122314,463.794067 
	C716.547424,464.101440 722.002563,463.879181 727.766968,463.879181 
	C727.766968,420.766144 727.766968,378.132568 727.766968,335.228333 
	C705.305054,335.228333 683.295166,335.228333 661.811035,335.228333 
	C661.811035,355.623383 661.830017,375.560455 661.800659,395.497467 
	C661.790527,402.338989 663.496521,409.629028 659.637573,415.777161 
	C642.042175,443.810394 624.136292,471.648651 606.359131,499.567932 
	C597.907715,512.840942 589.644165,526.237061 580.978271,539.368164 
	C578.160339,543.638123 578.799316,546.159058 583.113159,548.370056 
	C585.456848,549.571289 587.672546,551.022400 590.401611,552.629028 
	C585.605469,559.807617 580.937561,566.794128 575.987366,574.448669 
z"/>
<path fill="#000000" opacity="1.000000" stroke="none" 
	d="
M573.468628,1025.000000 
	C573.634521,1024.334839 574.189636,1023.196167 574.915344,1023.074402 
	C589.317627,1020.657288 603.939148,1019.199158 618.111023,1015.838135 
	C639.564392,1010.750183 661.017517,1005.274231 681.890198,998.240540 
	C700.592041,991.938354 718.730042,983.792175 736.718994,975.587158 
	C760.551453,964.716919 783.109375,951.435120 804.376526,936.125916 
	C817.304932,926.819397 830.238892,917.405273 842.275574,907.004089 
	C857.646362,893.721680 872.707031,879.967468 886.818481,865.369934 
	C903.495789,848.118164 918.270935,829.192871 932.272644,809.619934 
	C947.565369,788.242188 960.872314,765.720459 972.722656,742.383179 
	C985.044800,718.116638 995.451294,692.899658 1002.821594,666.673523 
	C1008.665100,645.880432 1013.414917,624.750916 1017.857117,603.604248 
	C1020.393250,591.531494 1021.322144,579.122437 1023.044250,566.874634 
	C1023.168640,565.990356 1023.862244,565.186096 1024.645508,564.672302 
	C1025.000000,718.259766 1025.000000,871.519531 1025.000000,1025.000000 
	C874.645874,1025.000000 724.291565,1025.000000 573.468628,1025.000000 
z"/>
<path fill="#000000" opacity="1.000000" stroke="none" 
	d="
M1025.000000,459.531342 
	C1024.334717,459.366150 1023.177429,458.800873 1023.078064,458.088165 
	C1021.639648,447.768372 1020.586853,437.389893 1018.945862,427.104584 
	C1017.212708,416.241089 1015.648865,405.272186 1012.770508,394.686646 
	C1007.327393,374.668396 1001.485962,354.728027 994.912964,335.055054 
	C986.317017,309.327545 974.140930,285.162903 961.167664,261.361908 
	C948.511292,238.142395 933.652710,216.420380 917.699280,195.427185 
	C910.875000,186.447159 903.497498,177.845398 895.880981,169.520355 
	C886.366699,159.120972 876.694275,148.817490 866.468750,139.128403 
	C848.432434,122.038376 829.240051,106.321411 808.939392,91.913223 
	C783.169617,73.623322 755.852905,58.105080 727.279846,44.738270 
	C701.573975,32.712780 675.026733,22.926460 647.480774,16.040161 
	C631.674255,12.088641 615.764587,8.528635 599.833496,5.108139 
	C594.278381,3.915421 588.514343,3.711630 582.860352,2.947565 
	C581.982178,2.828890 581.182861,2.126082 580.673584,1.346699 
	C728.928284,1.000000 876.856506,1.000000 1025.000000,1.000000 
	C1025.000000,153.687500 1025.000000,306.375092 1025.000000,459.531342 
z"/>
<path fill="#000000" opacity="1.000000" stroke="none" 
	d="
M1.000005,589.468628 
	C1.663604,589.633789 2.820379,590.198669 2.920034,590.911316 
	C7.879960,626.378296 16.426651,660.978455 29.825804,694.164001 
	C38.733051,716.224426 47.935417,738.358643 59.393520,759.143494 
	C71.530800,781.160400 85.864166,802.064148 100.390999,822.640381 
	C116.941269,846.082703 136.182358,867.478271 157.497269,886.656494 
	C175.558594,902.907227 194.571136,918.196350 213.972031,932.838684 
	C238.649139,951.462952 265.806915,966.128845 293.743530,979.326355 
	C318.974426,991.245605 344.976654,1001.119934 372.030243,1007.948608 
	C390.956940,1012.726013 410.061768,1016.823364 429.160431,1020.878906 
	C435.198181,1022.161011 441.478455,1022.282776 447.634033,1023.046143 
	C448.676514,1023.175476 449.649261,1023.867004 450.327087,1024.649414 
	C300.407318,1025.000000 150.814651,1025.000000 1.000000,1025.000000 
	C1.000000,879.979187 1.000000,734.958252 1.000005,589.468628 
z"/>
<path fill="#000000" opacity="1.000000" stroke="none" 
	d="
M441.531342,0.999995 
	C441.532166,1.658808 441.156433,2.796913 440.583160,2.907065 
	C421.034515,6.663283 401.288605,9.573138 381.947571,14.184033 
	C357.674713,19.970675 333.927490,27.786276 311.126495,38.058262 
	C295.704224,45.006092 280.353577,52.188320 265.392365,60.066135 
	C244.054260,71.301682 223.893036,84.467613 204.495392,98.852951 
	C180.365952,116.747383 157.573090,136.218170 137.426270,158.418213 
	C121.197289,176.301117 105.849930,195.102371 91.422585,214.472733 
	C72.478920,239.906769 57.236561,267.683167 43.880619,296.471191 
	C31.861576,322.377594 21.829937,349.003448 15.041635,376.756348 
	C10.708055,394.473450 7.004972,412.344849 3.030444,430.149597 
	C2.548335,432.309296 2.136416,434.484650 1.345987,436.326385 
	C1.000000,291.072418 1.000000,146.144836 1.000000,1.000000 
	C147.687485,1.000000 294.375092,1.000000 441.531342,0.999995 
z"/>
<path fill="#4A5050" opacity="1.000000" stroke="none" 
	d="
M646.933105,207.292267 
	C729.442505,207.289429 811.463623,207.289429 893.657593,207.289429 
	C893.657593,271.948883 893.657593,336.091125 893.657593,400.910614 
	C887.301453,400.910614 881.263489,400.910614 874.980896,400.910614 
	C874.980896,418.195312 874.986450,434.803894 874.978699,451.412506 
	C874.974487,460.390808 875.127930,469.375793 874.794128,478.342285 
	C874.717957,480.388184 873.345520,482.779968 871.853210,484.316803 
	C859.691589,496.840576 847.311096,509.151306 835.091064,521.618896 
	C816.612305,540.472046 798.241821,559.431458 779.742798,578.264709 
	C776.581848,581.482788 774.097595,586.098328 768.206787,584.935730 
	C767.440613,584.784485 766.251709,586.020569 765.469177,586.820068 
	C754.667480,597.856079 743.839783,608.867920 733.156921,620.018250 
	C728.212708,625.178833 727.817688,625.342346 722.425964,620.662109 
	C714.286316,613.596558 714.338684,613.647156 721.743835,605.987305 
	C732.670349,594.685120 743.513367,583.302246 754.370667,571.975952 
	C751.697937,569.164490 749.523438,566.885803 747.358887,564.597717 
	C745.146912,562.259644 745.232971,559.994629 747.503235,557.712341 
	C777.519043,527.537476 807.488525,497.316406 837.574768,467.211975 
	C841.786194,462.998047 841.759521,458.060272 841.698975,452.743896 
	C841.527283,437.661224 841.623840,422.575623 841.572144,407.491333 
	C841.565430,405.533997 841.307983,403.577515 841.129395,401.104279 
	C835.583069,401.104279 830.182617,401.104279 823.955322,401.104279 
	C823.955322,391.889130 823.952393,383.198120 823.955811,374.507111 
	C823.968628,341.854034 823.928833,309.200745 824.070618,276.548218 
	C824.087341,272.693573 822.628723,271.734375 819.079651,271.740173 
	C737.267578,271.874268 655.455505,271.930878 573.643372,272.001556 
	C571.671875,272.003265 569.700378,272.001770 567.001709,272.001770 
	C567.001709,280.327484 566.981628,288.238220 567.006470,296.148834 
	C567.042419,307.614380 566.998413,319.082062 567.225586,330.544159 
	C567.306152,334.610382 565.957031,336.296967 561.753906,336.065857 
	C556.774414,335.792053 551.768311,336.001495 546.387939,336.001495 
	C546.387939,440.858643 546.387939,545.570496 546.387939,651.150696 
	C553.001282,651.150696 559.587830,651.166504 566.174255,651.147339 
	C579.490051,651.108704 592.808960,651.201660 606.119812,650.918884 
	C610.744629,650.820618 612.105164,652.413574 612.088440,656.983704 
	C611.939270,697.646606 612.001648,738.310242 612.001648,779.891663 
	C617.407776,779.891663 622.736572,779.882996 628.065369,779.893188 
	C644.322021,779.924377 660.586548,780.278564 676.832214,779.874390 
	C685.898254,779.648743 698.373108,787.971252 698.853210,800.728271 
	C699.447632,816.520569 698.995544,832.352295 698.995544,849.002991 
	C694.439209,849.002991 690.182983,849.135010 685.939514,848.958984 
	C682.834717,848.830139 681.995117,850.015930 682.070068,853.070007 
	C682.283569,861.768494 682.145081,870.475708 682.145081,879.810059 
	C679.758911,880.119934 677.545837,880.649536 675.331177,880.656250 
	C659.425415,880.704651 643.518982,880.590393 627.613464,880.667114 
	C624.168457,880.683716 623.957275,878.756226 623.975281,876.153931 
	C624.036377,867.336121 623.998596,858.517578 623.998596,849.296875 
	C550.065369,849.296875 476.378326,849.296875 402.185608,849.296875 
	C402.185608,859.386536 402.185608,869.311279 402.185608,879.938293 
	C398.230133,880.197388 394.713074,880.609863 391.194183,880.626343 
	C376.903961,880.692993 362.612762,880.580872 348.322815,880.671814 
	C345.125214,880.692261 343.879761,879.614685 343.942291,876.311890 
	C344.109100,867.496704 343.999023,858.676331 343.999023,849.000122 
	C339.464203,849.000122 335.195923,849.221191 330.975525,848.868774 
	C329.666138,848.759460 327.406525,847.091370 327.408508,846.140747 
	C327.443207,829.710938 327.073029,813.230347 328.290741,796.872437 
	C328.977966,787.641052 339.593719,780.088196 349.063812,780.023621 
	C367.103424,779.900574 385.144104,779.931091 403.184326,779.894287 
	C405.970734,779.888611 408.873779,780.315491 411.489929,779.640015 
	C412.644592,779.341919 413.926483,776.796631 413.943756,775.257996 
	C414.112122,760.277100 413.996765,745.293396 414.016479,730.310547 
	C414.048645,705.840637 414.210571,681.370300 414.096802,656.901184 
	C414.075714,652.361206 415.466949,650.843201 420.106171,650.909668 
	C438.084351,651.167419 456.067963,651.050171 474.049530,651.071960 
	C475.829254,651.074097 477.608948,651.072266 479.689941,651.072266 
	C479.689941,545.902222 479.689941,441.327362 479.689941,335.934540 
	C474.336792,335.934540 469.067627,335.769928 463.814606,335.990479 
	C460.108673,336.146088 458.898468,334.775848 458.930359,331.068085 
	C459.082214,313.403473 458.998260,295.736847 458.998199,278.070923 
	C458.998199,276.275513 458.998199,274.480103 458.998199,272.290100 
	C373.483032,272.290100 288.448029,272.290100 202.735077,272.290100 
	C202.735077,277.617218 202.733871,282.883209 202.735275,288.149200 
	C202.744766,323.794678 202.669937,359.440643 202.864700,395.085114 
	C202.891098,399.915100 200.945175,401.197662 196.690552,401.011536 
	C193.041229,400.851868 189.379379,400.978485 185.094376,400.978485 
	C184.974670,403.066223 184.791519,404.979309 184.766708,406.894440 
	C184.553253,423.360535 184.433945,439.828247 184.133011,456.292664 
	C184.048325,460.925873 186.602829,464.119202 189.485123,467.032166 
	C210.425034,488.195160 231.492493,509.231873 252.451691,530.375854 
	C261.322693,539.325134 269.961700,548.504578 278.852600,557.433594 
	C281.573914,560.166565 281.706482,562.315491 278.867432,564.947632 
	C276.803070,566.861572 275.047791,569.108887 272.874420,571.518250 
	C276.400208,575.430054 279.791992,579.444946 283.449738,583.200806 
	C291.928650,591.907410 300.532776,600.492065 309.093414,609.118958 
	C311.687714,611.733276 312.468628,614.192932 308.980743,616.817566 
	C306.346771,618.799683 304.175659,621.539429 301.320892,623.022766 
	C299.980438,623.719177 296.888306,622.882996 295.657776,621.663696 
	C285.272125,611.373230 275.125671,600.840881 264.925751,590.363342 
	C262.116028,587.477173 259.876190,583.755737 254.761078,584.901672 
	C253.908386,585.092712 252.517197,583.707092 251.630981,582.799805 
	C232.916977,563.640442 214.333542,544.352722 195.523453,525.288513 
	C182.250137,511.835846 168.727615,498.627197 155.201126,485.427704 
	C152.406616,482.700745 151.102844,479.913635 151.135056,475.861694 
	C151.320145,452.584015 151.107407,429.303284 151.260696,406.025146 
	C151.286377,402.125641 150.322754,400.615265 146.256912,400.924835 
	C141.802383,401.263977 137.302078,401.001984 132.411591,401.001984 
	C132.411591,336.492249 132.411591,272.323975 132.411591,207.595428 
	C240.904526,207.595428 349.536743,207.595428 458.778320,207.595428 
	C458.778320,186.681686 458.778320,166.313339 458.778320,145.508362 
	C495.046021,145.508362 530.704468,145.508362 567.001587,145.508362 
	C567.001587,148.523819 567.001587,151.296585 567.001648,154.069366 
	C567.002075,169.873322 567.135681,185.679077 566.921814,201.480133 
	C566.857788,206.213379 567.548340,207.672821 573.154419,207.542664 
	C597.573364,206.975739 622.012878,207.296661 646.933105,207.292267 
z"/>
<path fill="#4A5050" opacity="1.000000" stroke="none" 
	d="
M376.943054,498.097290 
	C373.728851,493.335754 370.750275,488.849518 367.771698,484.363312 
	C367.428497,484.395111 367.085327,484.426910 366.742126,484.458710 
	C366.742126,498.888153 366.742126,513.317566 366.742126,527.747009 
	C366.266968,527.936523 365.791809,528.126038 365.316650,528.315552 
	C363.654022,526.644836 361.698547,525.177551 360.374237,523.271729 
	C347.523346,504.777924 334.743591,486.234253 322.040833,467.638367 
	C320.163666,464.890350 318.017609,463.659119 314.616699,463.833069 
	C309.333282,464.103394 304.025909,463.904510 298.366211,463.904510 
	C298.366211,420.879517 298.366211,378.335907 298.366211,335.301910 
	C320.556915,335.301910 342.559631,335.301910 365.351135,335.301910 
	C365.351135,338.620209 365.389282,341.992157 365.344482,345.362976 
	C365.162140,359.081329 364.941956,372.799194 364.760651,386.517548 
	C364.651978,394.737732 364.568542,402.958435 364.536530,411.179169 
	C364.533112,412.060486 364.738403,413.077911 365.201843,413.806366 
	C385.807648,446.196106 406.466431,478.552185 427.086273,510.932983 
	C433.128632,520.421692 438.853912,530.121216 445.161224,539.428284 
	C448.102295,543.768127 447.427704,546.247253 443.003662,548.456421 
	C440.951935,549.480957 439.090607,550.886658 436.369537,552.609192 
	C440.692993,559.138245 444.972961,565.489685 449.136658,571.916382 
	C455.164856,581.220947 461.202728,590.522156 467.029816,599.952515 
	C468.705658,602.664673 469.165131,605.632812 465.194550,607.300232 
	C463.995728,607.803650 462.947418,608.693726 461.877716,609.472107 
	C451.799713,616.805420 452.824951,615.078247 447.108856,606.294922 
	C426.890106,575.226685 406.849182,544.042847 386.727448,512.911499 
	C383.580139,508.042114 380.363312,503.217743 376.943054,498.097290 
z"/>
<path fill="#4A5050" opacity="1.000000" stroke="none" 
	d="
M576.128540,574.114685 
	C580.937561,566.794128 585.605469,559.807617 590.401611,552.629028 
	C587.672546,551.022400 585.456848,549.571289 583.113159,548.370056 
	C578.799316,546.159058 578.160339,543.638123 580.978271,539.368164 
	C589.644165,526.237061 597.907715,512.840942 606.359131,499.567932 
	C624.136292,471.648651 642.042175,443.810394 659.637573,415.777161 
	C663.496521,409.629028 661.790527,402.338989 661.800659,395.497467 
	C661.830017,375.560455 661.811035,355.623383 661.811035,335.228333 
	C683.295166,335.228333 705.305054,335.228333 727.766968,335.228333 
	C727.766968,378.132568 727.766968,420.766144 727.766968,463.879181 
	C722.002563,463.879181 716.547424,464.101440 711.122314,463.794067 
	C707.971252,463.615540 705.912415,464.468933 704.107544,467.088165 
	C695.559692,479.492950 686.839905,491.779114 678.231201,504.142181 
	C673.303345,511.218994 668.505371,518.386353 663.559631,525.450500 
	C662.774475,526.571899 661.516968,527.362610 659.413818,529.272522 
	C659.413818,513.146301 659.413818,498.410522 659.413818,483.674744 
	C659.029724,483.568604 658.645630,483.462494 658.261536,483.356354 
	C652.276306,492.558044 646.273987,501.748657 640.308899,510.963409 
	C620.075928,542.219299 599.851501,573.480713 579.640991,604.751160 
	C578.205688,606.971924 576.948181,609.307129 575.539062,611.545715 
	C573.814453,614.285583 571.637634,614.867126 568.875793,612.903015 
	C565.914978,610.797485 562.549072,609.127563 560.022949,606.603943 
	C558.841125,605.423401 558.286682,602.187439 559.056274,600.735657 
	C561.915283,595.342163 565.398804,590.274353 568.733887,585.140198 
	C571.079468,581.529358 573.564575,578.009277 576.128540,574.114685 
z"/>
</svg>