<svg version="1.1" id="Layer_1" xmlns="http://www.w3.org/2000/svg" xmlns:xlink="http://www.w3.org/1999/xlink" x="0px" y="0px"
	 width="100%" viewBox="0 0 1024 1024" enable-background="new 0 0 1024 1024" xml:space="preserve">
<path fill="#000000" opacity="1.000000" stroke="none" 
	d="
M400.572937,526.011353 
	C400.489502,506.352325 400.588104,487.045074 400.648346,467.737701 
	C400.669434,460.977203 400.098267,460.451721 393.238770,460.357727 
	C381.730835,460.200073 381.725769,460.200073 381.721405,448.493134 
	C381.708954,414.993317 381.806458,381.492798 381.579407,347.994446 
	C381.544678,342.872192 383.114838,341.488678 388.100586,341.536469 
	C403.777588,341.686737 403.779419,341.497009 403.647583,326.075348 
	C403.584656,318.714172 403.584656,318.712769 410.842468,318.700714 
	C419.175629,318.686920 427.510803,318.785278 435.841278,318.628998 
	C442.450958,318.504944 444.525116,316.378235 444.664520,309.827942 
	C445.032745,292.524109 445.214111,275.215546 445.712769,257.915833 
	C445.839447,253.521179 444.363556,251.720795 439.987732,252.222061 
	C438.342346,252.410522 436.657837,252.254150 434.991211,252.261292 
	C424.769348,252.305130 424.740295,252.305771 424.717621,242.333954 
	C424.677856,224.846954 423.154999,207.397598 423.560120,189.889481 
	C423.671234,185.088776 425.117523,183.283005 429.908234,183.637253 
	C434.217987,183.955933 438.578400,183.535690 442.900635,183.754745 
	C446.775726,183.951126 448.048706,182.113174 447.605804,178.627914 
	C447.060059,174.333191 446.558563,170.056732 446.595642,165.701187 
	C446.621613,162.653976 447.827484,161.448364 450.770355,161.627640 
	C452.264313,161.718658 453.769226,161.624420 455.269165,161.624451 
	C576.768555,161.628052 698.267944,161.632675 819.767334,161.637680 
	C820.934021,161.637726 822.105713,161.715454 823.266418,161.633621 
	C826.832947,161.382187 828.482788,162.847717 828.328308,166.569977 
	C828.148804,170.895645 828.416138,175.239349 828.254333,179.566422 
	C828.142334,182.563171 829.248474,183.829697 832.295227,183.721771 
	C836.123230,183.586151 839.963501,183.811249 843.792725,183.693115 
	C846.860718,183.598434 848.370667,184.601807 848.350586,187.958633 
	C848.232788,207.624512 848.219238,227.291199 848.237976,246.957535 
	C848.240967,250.072937 847.092957,251.554657 843.816956,251.410553 
	C839.990723,251.242264 836.148682,251.450348 832.320129,251.311722 
	C829.275330,251.201492 828.216370,252.554565 828.224548,255.496368 
	C828.278870,274.996002 828.290405,294.496155 828.194641,313.995544 
	C828.174622,318.074097 830.786804,317.952240 833.551331,318.004944 
	C849.376831,318.306580 865.202698,318.592804 881.026917,318.950470 
	C888.352722,319.116089 895.674805,319.594452 902.999329,319.612030 
	C906.821350,319.621185 907.992981,321.028290 907.454468,324.735992 
	C906.857788,328.843719 906.713440,333.016998 906.366150,337.161194 
	C906.107605,340.246033 907.283325,341.867065 910.615479,341.763062 
	C914.110657,341.653992 917.616394,341.731506 921.112427,341.861786 
	C923.301025,341.943420 924.673706,342.589691 924.683411,345.447906 
	C924.807556,381.930450 925.086365,418.412506 925.309082,454.894745 
	C925.347778,461.227814 925.120667,467.568848 925.373291,473.891937 
	C925.539246,478.044189 923.985168,479.898773 919.887512,479.261108 
	C914.449524,478.414825 912.536987,480.361633 911.274963,486.079132 
	C907.007812,505.410278 903.128845,524.799316 900.058411,544.346252 
	C899.487488,547.980591 896.490845,549.759521 895.130737,552.821167 
	C889.013489,566.591370 883.561951,580.613403 878.007141,594.611023 
	C872.365601,608.827271 865.877625,622.708862 859.700073,636.710449 
	C857.757446,641.113342 855.680969,645.460266 853.553467,649.777466 
	C851.631287,653.678162 849.763916,653.767761 847.131226,650.216553 
	C846.341919,649.151917 845.734802,647.893738 844.771790,647.026672 
	C840.914673,643.553833 838.016907,644.082397 835.770569,648.703491 
	C825.007019,670.846375 814.365723,693.049072 803.530273,715.156616 
	C795.845825,730.835022 787.963257,746.416992 780.077637,761.995605 
	C777.805847,766.483765 774.489441,769.741516 769.087097,770.354004 
	C764.279724,770.899170 761.296448,768.864807 759.839600,764.246765 
	C757.103394,755.573608 758.009033,748.100037 763.977600,740.557068 
	C770.789001,731.948975 774.722595,721.450562 779.662231,711.644897 
	C789.767212,691.585510 799.793396,671.486450 809.936279,651.446411 
	C812.345337,646.686523 813.966614,641.637939 815.960876,636.726135 
	C816.744324,634.796509 815.807861,633.930359 814.454651,633.093201 
	C812.333008,631.780762 810.268555,630.345581 808.042847,629.237488 
	C801.622986,626.041565 801.881592,625.254272 804.529358,618.173157 
	C810.075867,603.340210 817.639954,589.397400 823.752136,574.812439 
	C828.511108,563.456787 833.225952,552.082153 838.069458,540.762634 
	C839.619080,537.141052 837.785156,535.236145 834.843689,534.249756 
	C830.632751,532.837646 830.239807,530.377991 831.437744,526.519714 
	C835.678589,512.860413 839.625183,499.109955 843.817627,485.435242 
	C844.598999,482.886383 844.927917,480.649078 843.282959,478.343414 
	C841.513733,475.863434 841.840759,472.929138 841.872131,470.115326 
	C842.100830,449.624176 842.395020,429.133667 842.607056,408.642365 
	C842.672668,402.303589 842.387756,402.081787 836.245300,402.081390 
	C824.912231,402.080688 813.576721,402.242188 802.247192,402.048370 
	C797.525879,401.967590 796.188354,403.974335 796.387878,408.388885 
	C797.433044,431.512054 798.231812,454.644623 798.338684,477.795990 
	C798.352234,480.731049 798.413940,483.394043 794.807495,484.559967 
	C792.973755,485.152802 793.021851,487.267853 793.071411,488.913452 
	C793.452209,501.560333 792.491943,514.233765 793.809509,526.860779 
	C794.080200,529.454590 793.108582,531.737976 792.167053,534.059082 
	C782.790710,557.174805 772.927185,580.078491 762.417725,602.703308 
	C757.513855,613.260315 752.625610,623.825012 747.826294,634.429688 
	C746.690674,636.938904 745.101990,637.511902 742.638245,636.592896 
	C739.052063,635.254944 735.395142,634.102112 731.833740,632.703857 
	C728.058044,631.221680 725.432129,631.818115 724.112854,636.051331 
	C723.374573,638.420654 722.045776,640.591003 721.881470,643.161011 
	C721.565002,648.111328 716.941467,650.400696 714.894165,654.337769 
	C708.718140,666.215149 705.542542,679.243652 700.309326,691.477600 
	C696.971741,699.280151 693.939880,707.213318 690.755310,715.081604 
	C689.690674,717.712219 688.392334,720.155273 686.187256,722.099548 
	C680.934082,726.731323 679.353699,733.508667 676.886230,739.565674 
	C671.484314,752.826233 664.396667,765.291077 659.113892,778.590393 
	C657.755859,782.009216 654.873657,783.205017 651.339966,782.120300 
	C646.539978,780.647034 644.232544,777.440125 644.900757,773.608032 
	C646.870850,762.310669 653.004211,752.620972 657.209167,742.199890 
	C660.066833,735.117859 664.857727,728.356140 665.656982,720.960876 
	C667.508484,703.828369 675.711548,689.048462 681.262512,673.309937 
	C686.909058,657.300598 693.264832,641.541565 699.287659,625.664429 
	C699.861023,624.152954 700.718689,622.661438 699.042297,621.121216 
	C694.975037,617.384094 695.583313,613.579834 697.669800,608.624817 
	C704.314880,592.844177 710.151917,576.724609 716.405151,560.776794 
	C718.528442,555.361633 720.465698,549.781250 723.358582,544.779968 
	C728.827332,535.325256 730.638733,525.383972 729.986877,514.591919 
	C729.465332,505.956543 729.803711,497.264160 729.906189,488.598816 
	C729.945068,485.312744 729.376831,482.965179 725.332520,483.289185 
	C722.416321,483.522797 721.652405,481.705078 721.684753,479.179108 
	C721.974548,456.527924 720.822449,433.855042 722.547546,411.227814 
	C723.145386,403.387360 722.278076,402.235535 714.236023,402.266968 
	C704.905273,402.303436 695.573181,402.295197 686.244385,402.457306 
	C679.374268,402.576660 679.154480,402.694244 679.459900,409.781372 
	C680.759583,439.932617 680.055054,470.098480 680.287842,500.256958 
	C680.351501,508.509430 680.299194,508.509827 671.976196,508.407776 
	C660.389954,508.265686 660.981018,508.303467 660.231750,520.025635 
	C658.379822,548.998108 660.002258,577.999695 658.903870,606.959656 
	C658.506042,617.450073 658.352905,627.940125 658.107422,638.428955 
	C658.003357,642.876648 656.383118,644.495361 651.797607,644.439636 
	C635.613647,644.243042 638.471436,643.384277 638.355774,658.048462 
	C638.144165,684.880127 638.253418,711.714539 638.015198,738.545837 
	C637.931274,747.996887 637.546753,757.355469 634.881042,766.698059 
	C633.053528,773.103088 633.641357,780.232727 633.424072,787.047180 
	C633.310730,790.600403 632.617065,793.968811 631.575989,797.313049 
	C630.931885,799.382202 630.520203,801.630920 627.536743,801.531921 
	C624.581238,801.433838 622.334229,800.352600 621.435852,797.365723 
	C620.813904,795.297791 619.854126,793.168823 619.904358,791.087891 
	C620.205994,778.589294 617.571045,766.312805 616.955200,753.977478 
	C615.262024,720.064453 616.232788,686.080444 616.730896,652.124390 
	C616.844727,644.362915 616.757263,644.361572 609.140137,644.340332 
	C598.024475,644.309326 597.766235,644.077820 597.753357,632.864746 
	C597.708252,593.700195 597.686035,554.535583 597.651062,515.371033 
	C597.644714,508.285126 597.256592,507.785339 590.085144,507.485901 
	C584.759338,507.263580 579.415894,507.465759 574.089600,507.250366 
	C567.305542,506.975983 566.712219,506.281647 566.710999,499.581726 
	C566.705139,468.415283 566.622681,437.248260 566.819702,406.083038 
	C566.849426,401.395844 565.357117,400.118439 560.828369,400.183777 
	C532.506042,400.592377 504.180481,400.852417 475.855469,400.912048 
	C471.083557,400.922119 469.965027,402.736877 470.029327,407.126587 
	C470.246582,421.956451 470.128876,436.791290 470.135590,451.624207 
	C470.139282,459.789825 470.135803,459.785583 462.024933,460.216187 
	C461.225555,460.258636 460.431030,460.392975 459.196014,460.535065 
	C460.428467,463.291992 462.902924,464.239197 464.729858,465.705017 
	C474.708130,473.710724 484.787415,481.591461 494.881836,489.451080 
	C499.123230,492.753448 499.306793,496.046722 495.253021,499.628906 
	C494.259979,500.506409 493.257629,501.373352 491.830322,502.620026 
	C495.429504,509.269257 498.777374,516.097778 502.704926,522.574768 
	C510.651093,535.679016 517.811829,549.210999 525.073608,562.687683 
	C530.020020,571.867493 529.946960,572.041809 521.155640,577.603760 
	C518.531799,579.263794 518.164307,580.594360 519.959167,583.117126 
	C529.502380,596.530823 538.852295,610.082458 548.438232,623.465210 
	C552.464294,629.085938 552.557617,629.618958 546.983582,633.527222 
	C546.302002,634.005127 545.605591,634.470703 544.974304,635.010193 
	C537.669067,641.253784 537.257507,643.110107 542.861572,650.797546 
	C554.237244,666.402161 565.642883,681.993896 577.484985,697.242371 
	C579.946777,700.412231 579.622498,704.135925 581.570068,707.127075 
	C585.654602,713.400208 589.269836,720.122620 594.564880,725.403992 
	C598.953369,729.781128 597.991211,735.270508 598.885315,740.248169 
	C599.423889,743.246216 595.811157,745.110535 592.967834,746.200928 
	C590.291992,747.227112 589.205444,745.142822 587.374146,743.532104 
	C579.563232,736.661865 573.647278,728.244995 567.160095,720.285400 
	C566.747803,719.779541 566.182861,719.093201 565.639282,719.044373 
	C555.530701,718.136169 554.227112,708.517456 549.488220,702.474426 
	C539.727295,690.027466 532.642456,675.772827 523.619324,662.792480 
	C521.246826,659.379578 518.967957,659.064270 515.777222,660.589233 
	C513.526855,661.664734 511.427216,663.054504 509.181427,664.140991 
	C504.052490,666.622437 502.123718,666.050781 499.863953,660.771118 
	C492.160583,642.772949 480.354950,627.137573 470.974976,610.112488 
	C469.477936,607.395325 467.711304,607.636047 465.650909,608.705078 
	C460.725311,611.260803 457.918976,609.378601 455.214264,604.930908 
	C444.138092,586.717102 432.812439,568.653748 421.454865,550.612854 
	C415.742859,541.539612 407.633392,534.458130 400.572937,526.011353 
M784.500000,187.135513 
	C712.689331,187.150436 640.878601,187.164169 569.067932,187.180771 
	C532.079834,187.189331 495.091675,187.184158 458.103607,187.232269 
	C451.666138,187.240646 451.451019,187.744095 450.896301,193.932327 
	C450.105713,202.751801 450.386719,211.576187 450.342041,220.400223 
	C450.304443,227.817047 450.350220,227.824417 457.780945,227.824768 
	C540.921021,227.828751 624.061096,227.830948 707.201172,227.832367 
	C744.355896,227.833008 781.510986,227.755951 818.664978,227.921570 
	C823.475098,227.942993 825.034851,226.472000 824.863464,221.663086 
	C824.525330,212.177872 824.560242,202.667160 824.828430,193.177933 
	C824.954102,188.730606 823.744263,186.962128 818.986633,187.086884 
	C807.831604,187.379349 796.663086,187.152496 784.500000,187.135513 
M732.505798,343.690338 
	C731.008362,343.738373 729.510376,343.839691 728.013489,343.826050 
	C714.041565,343.698914 700.070007,343.511322 686.097839,343.429565 
	C679.945923,343.393616 679.374634,344.053131 679.333252,350.381012 
	C679.301636,355.212433 679.271057,360.045074 679.339600,364.875732 
	C679.538330,378.887939 677.357056,377.233948 691.718567,377.360992 
	C746.528015,377.845978 801.345703,377.748932 856.157104,377.385834 
	C867.424988,377.311218 866.179810,377.015472 866.223267,387.471588 
	C866.304260,406.964478 866.293335,426.457672 866.349731,445.950684 
	C866.375793,454.946716 866.406921,454.963745 875.121887,454.951416 
	C881.785950,454.941986 888.450684,454.931366 895.113770,454.832031 
	C902.810791,454.717285 903.000793,454.664459 902.591919,447.141937 
	C901.325378,423.835968 901.936768,400.513214 901.770020,377.197815 
	C901.704468,368.034790 901.659607,358.870026 901.773987,349.708160 
	C901.813354,346.552917 900.723999,345.220886 897.461853,345.162170 
	C892.820435,345.078674 888.188782,344.323669 883.549255,344.282867 
	C859.087708,344.067749 834.625061,343.967621 810.162659,343.864624 
	C784.536987,343.756744 758.911194,343.690826 732.505798,343.690338 
M471.519104,343.389160 
	C465.363403,343.469879 459.207458,343.633606 453.052063,343.614563 
	C438.888733,343.570740 424.725372,343.469666 410.562866,343.314819 
	C407.715729,343.283722 406.262787,344.164948 406.269043,347.298859 
	C406.327118,376.463318 406.327332,405.627991 406.263947,434.792419 
	C406.256989,437.987183 407.796967,438.711182 410.603119,438.689880 
	C420.768433,438.612610 430.934906,438.691040 441.100677,438.653381 
	C442.710815,438.647369 444.436890,439.151611 446.276215,437.726471 
	C446.369598,435.695282 446.591248,433.389893 446.562683,431.087646 
	C446.370544,415.611816 446.120178,400.136688 445.899658,384.661224 
	C445.800262,377.685822 445.811737,377.664215 452.688812,377.664307 
	C488.852997,377.664764 525.017212,377.677338 561.181396,377.683746 
	C562.514526,377.683990 563.847778,377.644073 565.180664,377.657257 
	C567.404663,377.679230 568.649963,376.657257 568.652832,374.376801 
	C568.665405,364.412598 568.658264,354.448395 568.658264,343.387238 
	C536.343262,343.387238 504.428345,343.387238 471.519104,343.389160 
M656.580994,386.880219 
	C656.335205,382.058502 655.912964,377.238159 655.875793,372.414825 
	C655.748718,355.918274 655.650146,339.419800 655.781372,322.924011 
	C655.818665,318.234589 654.305176,316.605164 649.410400,316.512878 
	C632.300049,316.190216 615.208191,317.798920 598.100891,316.812897 
	C594.894836,316.628143 593.094177,318.032196 593.114746,321.499390 
	C593.151184,327.663391 593.179749,333.832123 592.987915,339.991943 
	C592.064941,369.616241 591.257080,399.241028 591.288696,428.884460 
	C591.292664,432.597473 592.725586,433.797333 596.341797,433.775055 
	C614.671814,433.662079 633.004028,433.626678 651.333008,433.811798 
	C655.875000,433.857666 657.013184,431.965515 656.934753,427.816193 
	C656.682922,414.488159 656.698242,401.155090 656.580994,386.880219 
M693.803955,316.316315 
	C690.604736,317.615479 686.788330,316.189056 682.492004,318.865417 
	C685.585938,319.036316 687.375183,319.235840 689.162048,319.216431 
	C696.980957,319.131500 704.798706,318.937683 712.617737,318.868256 
	C724.598755,318.761902 736.580383,318.731079 748.561707,318.655396 
	C751.774658,318.635132 754.655212,318.237061 754.648743,313.937683 
	C754.620239,294.965942 754.632996,275.994080 754.647339,257.022278 
	C754.648926,254.985840 754.252625,253.297546 751.753357,253.279449 
	C747.616516,253.249466 743.486328,252.657715 739.367249,253.949265 
	C736.331299,254.901199 734.967896,256.429932 735.376343,259.740204 
	C736.007629,264.855804 732.739197,268.104095 727.592041,267.893188 
	C722.470093,267.683289 717.346069,267.456543 712.221252,267.404266 
	C705.045532,267.331116 702.281006,270.043915 702.213501,277.341858 
	C702.117981,287.658752 702.213745,297.977295 702.169861,308.294891 
	C702.138672,315.631287 701.860901,315.880737 693.803955,316.316315 
M519.303711,286.499634 
	C519.303711,296.924164 519.303711,307.348663 519.303711,318.032654 
	C538.052734,319.154602 556.085449,318.429688 574.615723,317.967255 
	C571.110840,316.088409 571.007507,313.385101 570.557495,310.479370 
	C568.638123,298.084259 568.940613,285.620880 569.013794,273.165375 
	C569.034851,269.586487 567.864258,268.015991 564.109253,268.164368 
	C558.629761,268.380890 553.130676,268.082458 547.649109,268.271484 
	C544.081421,268.394501 542.310913,267.069061 541.274475,263.540710 
	C537.879272,251.982315 537.745605,252.021667 525.708191,252.325104 
	C525.209473,252.337662 524.710571,252.342514 524.211792,252.352890 
	C520.808716,252.423630 519.174805,253.829285 519.253906,257.562042 
	C519.451111,266.870728 519.308167,276.186646 519.303711,286.499634 
M620.294373,573.500000 
	C620.298401,586.808899 620.288391,600.117737 620.310791,613.426636 
	C620.328430,623.936462 620.346069,623.936462 630.633545,623.897217 
	C637.677673,623.870361 637.684937,623.870361 637.701843,616.685242 
	C637.773132,586.407959 637.858215,556.130615 637.883179,525.853333 
	C637.886169,522.239624 637.745239,518.603027 637.324829,515.017578 
	C636.804688,510.581055 631.023987,508.674866 627.034058,510.847809 
	C621.553711,513.832458 620.155579,518.362549 620.202698,524.089783 
	C620.335510,540.225708 620.277771,556.363159 620.294373,573.500000 
M494.307587,555.096130 
	C487.333435,542.299988 480.359314,529.503784 473.422760,516.776550 
	C470.062225,517.728271 468.078094,519.538086 465.811768,520.870667 
	C459.514069,524.573792 455.094727,530.695923 448.785370,534.214417 
	C445.002594,536.323914 444.773224,538.494568 446.425873,541.859985 
	C452.739014,554.715881 460.527618,566.748047 467.282532,579.355469 
	C468.834290,582.251648 470.737183,582.414795 473.362976,580.713318 
	C479.228027,576.912964 485.204865,573.285522 491.098328,569.528259 
	C500.632141,563.450256 499.819214,565.420715 494.307587,555.096130 
M660.406311,272.014679 
	C637.851929,272.014679 615.297546,272.014679 592.238342,272.014679 
	C592.238342,278.418060 592.257019,284.375092 592.229797,290.331940 
	C592.217468,293.022156 593.786499,293.658569 596.115356,293.656555 
	C622.085449,293.634125 648.055603,293.623566 674.025574,293.671814 
	C676.807495,293.677002 677.954163,292.463837 677.952820,289.789612 
	C677.950562,285.129242 677.919556,280.465424 678.083801,275.809540 
	C678.219116,271.974854 676.256165,270.812286 672.813782,271.105103 
	C669.002258,271.429260 665.186523,271.703644 660.406311,272.014679 
M493.391663,252.368423 
	C487.243195,252.452484 481.091644,252.447540 474.947601,252.659836 
	C472.073792,252.759140 469.903656,253.718994 469.924500,257.387634 
	C470.031219,276.175507 470.022186,294.964355 469.968536,313.752594 
	C469.959351,316.976593 471.581421,318.495605 474.494598,318.337189 
	C480.316559,318.020630 486.111908,318.212067 491.922638,318.488953 
	C495.606628,318.664490 497.449188,316.659821 497.394470,313.005371 
	C497.349762,310.019379 497.092590,307.035309 497.087585,304.050140 
	C497.061432,288.433441 497.102356,272.816589 497.072754,257.199890 
	C497.068787,255.099472 497.424988,252.616135 493.391663,252.368423 
M785.092346,252.825607 
	C777.963562,253.339905 777.989929,253.379501 778.427917,260.496704 
	C778.764832,265.971436 779.009033,271.455658 779.128052,276.939270 
	C779.387878,288.913818 779.617004,300.890137 779.699402,312.866852 
	C779.729492,317.242523 781.169739,319.251099 785.935364,318.586487 
	C790.364563,317.968842 794.895874,317.794525 799.372437,317.889465 
	C803.571350,317.978546 804.776184,316.240387 804.740295,312.217957 
	C804.580017,294.244110 804.538940,276.266418 804.770203,258.294159 
	C804.821777,254.282211 803.195374,252.780685 799.685059,252.737320 
	C795.067932,252.680252 790.447754,252.868805 785.092346,252.825607 
M656.688965,472.410583 
	C656.683289,468.913330 656.562317,465.411316 656.706360,461.920258 
	C656.834351,458.817413 655.751099,457.321991 652.446289,457.332306 
	C633.628174,457.391144 614.809570,457.366272 595.991333,457.322388 
	C592.501831,457.314270 591.316528,459.127350 591.371826,462.350616 
	C591.443115,466.512360 591.342285,470.676697 591.361816,474.839691 
	C591.393799,481.645599 591.837097,482.063446 598.861877,482.060760 
	C615.182373,482.054504 631.502808,482.034576 647.823303,482.033997 
	C656.660522,482.033691 656.660522,482.046448 656.688965,472.410583 
M764.373535,403.936371 
	C760.062012,404.035583 755.743225,404.012695 751.441284,404.271301 
	C747.776550,404.491577 745.940918,406.218231 746.008423,410.348816 
	C746.263855,425.986053 746.298462,441.629181 746.192261,457.268555 
	C746.164307,461.384674 748.113831,462.496094 751.681213,462.387115 
	C756.500732,462.239868 761.322144,462.118164 766.143555,462.078400 
	C772.967957,462.022156 773.630310,461.480743 773.667480,454.729858 
	C773.746216,440.420471 773.746765,426.110626 773.779053,411.800964 
	C773.796448,404.081787 772.820496,403.182343 764.373535,403.936371 
M425.944519,517.954712 
	C427.878632,519.065491 429.117981,517.566162 430.371155,516.627075 
	C435.559998,512.738708 440.858948,509.030823 446.271912,505.448212 
	C452.483490,501.336945 458.299927,496.628693 464.445007,492.063141 
	C461.903320,487.505035 458.029205,484.490723 454.915009,480.906555 
	C449.576202,474.762115 443.670929,469.101410 437.883972,463.358002 
	C434.470306,459.970032 430.031219,460.324615 426.148071,461.731873 
	C422.833191,462.933197 424.180695,466.668091 424.162476,469.334045 
	C424.066742,483.326447 424.117218,497.320007 424.157623,511.313049 
	C424.163757,513.436218 423.709412,515.692139 425.944519,517.954712 
M760.360535,554.991821 
	C761.803528,550.461670 764.096375,546.196533 764.882874,541.543945 
	C762.423950,539.382568 759.485779,539.135986 756.917175,538.034851 
	C752.405151,536.100586 750.021667,537.717651 748.222107,542.184082 
	C740.895142,560.369141 733.327026,578.457947 725.737305,596.535828 
	C722.132874,605.121399 722.021790,605.071228 730.211182,608.696777 
	C731.275146,609.167847 732.357117,609.618896 733.361816,610.198792 
	C735.891052,611.658630 737.445618,611.276123 738.738342,608.364929 
	C746.427490,591.049133 753.963989,573.677368 760.360535,554.991821 
M882.533875,514.077209 
	C884.352173,504.631195 885.955811,495.136597 888.079224,485.759705 
	C889.140564,481.072662 887.129456,479.449707 883.124146,479.431702 
	C878.484924,479.410828 873.841064,479.795471 869.204590,480.087830 
	C867.142883,480.217834 865.987061,481.443939 865.419739,483.453705 
	C863.482056,490.318573 861.246277,497.105530 859.503235,504.017761 
	C856.580078,515.609802 857.817566,517.768005 868.898560,522.020752 
	C878.403687,525.668701 880.135254,524.752075 882.533875,514.077209 
M833.605530,609.982666 
	C829.309631,618.558533 829.378540,618.687866 840.342651,622.018005 
	C841.239929,620.597351 842.360291,619.154846 843.135437,617.545898 
	C853.025818,597.016907 861.652832,575.959961 869.492371,554.568298 
	C870.865906,550.820374 870.610901,548.402527 866.415649,546.824463 
	C862.184753,545.233032 860.713623,547.546204 859.337891,550.731140 
	C850.898499,570.269836 842.420898,589.791931 833.605530,609.982666 
M491.912109,610.612976 
	C497.998505,620.832520 504.084900,631.052124 510.253967,641.410583 
	C514.042725,638.917786 517.153870,636.728333 520.405273,634.772217 
	C523.549927,632.880371 523.674622,630.740295 521.815613,627.788025 
	C519.961731,624.843994 518.552612,621.623779 516.856262,618.575989 
	C511.539246,609.023071 506.178772,599.494385 500.601013,589.538269 
	C498.593323,591.000122 497.003082,592.140625 495.430908,593.305542 
	C486.158234,600.176025 486.159637,600.177917 491.912109,610.612976 
M749.112732,498.523926 
	C749.172058,502.517761 749.231567,506.511566 749.290527,510.505402 
	C749.315674,512.205933 749.312988,513.993713 751.407776,514.522217 
	C757.039001,515.943054 762.672485,517.365540 768.342712,518.616455 
	C770.498169,519.092041 771.868469,518.031006 771.942505,515.669312 
	C772.202820,507.365265 772.495850,499.062073 772.704590,490.756744 
	C772.759338,488.577728 771.979675,486.527649 769.499390,486.469757 
	C762.904419,486.315826 756.273438,485.679474 749.746948,486.776489 
	C748.589233,490.574188 749.178162,494.080475 749.112732,498.523926 
M673.411377,255.838638 
	C672.303284,253.944733 670.251282,252.779221 668.476135,252.930359 
	C664.050903,253.307129 659.653320,254.249176 655.310120,255.248459 
	C653.158325,255.743530 650.476074,256.205475 651.008789,259.586487 
	C651.484680,262.606537 653.677124,263.490387 656.299622,263.981384 
	C660.493896,264.766571 663.526001,262.307495 666.530579,260.215485 
	C670.237000,261.742493 669.363647,268.830383 676.368652,266.905548 
	C673.949036,263.541534 670.454590,260.575317 673.411377,255.838638 
z"/>
<path fill="#000000" opacity="1.000000" stroke="none" 
	d="
M237.000122,273.627441 
	C260.664612,273.626648 283.829834,273.723206 306.992828,273.538544 
	C311.295593,273.504242 313.039642,274.499817 312.458862,279.101105 
	C311.982635,282.874146 312.465393,286.758698 312.323578,290.586456 
	C312.212921,293.573151 313.414764,294.824524 316.416168,294.774353 
	C321.747040,294.685303 327.081543,294.835999 332.413605,294.786346 
	C335.156158,294.760773 336.859680,295.514313 336.865997,298.697205 
	C336.918884,325.297150 337.084259,351.896912 337.093109,378.496796 
	C337.094818,383.640717 336.518860,388.783020 336.293915,393.929718 
	C336.197418,396.137177 335.290375,397.308685 332.990112,397.390594 
	C328.497375,397.550476 324.007507,397.960815 319.516815,397.955902 
	C315.780548,397.951843 314.001160,399.198639 314.280243,403.232635 
	C314.567078,407.379211 314.086578,411.581818 314.419952,415.721405 
	C314.781036,420.205353 312.998779,421.405396 308.687439,421.374115 
	C285.357605,421.204681 262.025818,421.296814 238.694717,421.305817 
	C232.028137,421.308380 231.828613,421.328339 232.133743,427.891449 
	C232.354187,432.632935 229.997345,438.588409 233.452850,441.800964 
	C236.614838,444.740631 242.408295,442.511078 247.014786,442.974731 
	C258.652008,444.145996 270.344543,443.980988 281.975952,443.547821 
	C290.589539,443.226990 296.605988,446.940918 301.971008,452.846283 
	C313.260773,465.272980 325.405426,476.936493 336.520844,489.455566 
	C343.557861,497.381287 352.381531,503.523651 358.399719,512.390259 
	C359.720398,514.336060 360.361938,516.081299 360.358978,518.304688 
	C360.334473,536.636292 360.293579,554.968140 360.395325,573.299133 
	C360.411804,576.269653 359.308685,578.253052 357.119293,580.131958 
	C350.440491,585.863647 343.909973,591.768066 336.236816,598.566528 
	C343.945923,598.949158 350.411377,599.372498 356.883667,599.560425 
	C362.545410,599.724792 368.216217,599.707336 373.880249,599.608826 
	C377.103760,599.552734 378.293793,600.888733 378.205048,604.103760 
	C377.727081,621.417236 377.347992,638.733704 377.006989,656.050598 
	C376.949524,658.970398 375.699829,660.363953 372.789764,660.338196 
	C370.123657,660.314575 367.457092,660.349243 364.790710,660.349243 
	C325.461090,660.349731 286.131500,660.347778 246.801895,660.348755 
	C240.024414,660.348938 239.911316,660.475769 239.928833,667.392761 
	C240.001373,696.055542 240.178162,724.718872 240.037399,753.380615 
	C240.013092,758.332275 241.304840,760.112610 246.466904,760.002502 
	C260.625458,759.700500 274.795197,759.959900 288.960144,759.902832 
	C293.716980,759.883667 298.081451,761.035461 302.500488,762.804993 
	C322.089111,770.649109 341.757477,778.296143 361.444305,785.891968 
	C367.986877,788.416260 371.174957,792.284973 371.239349,799.367981 
	C371.364960,813.183289 371.833038,826.977234 373.068420,840.739624 
	C373.352814,843.907654 371.991180,845.419861 368.799866,845.395203 
	C364.967377,845.365601 361.133453,845.469788 357.301636,845.413696 
	C353.997955,845.365417 352.428406,846.854248 352.297638,850.193359 
	C352.220398,852.165283 351.628021,854.111511 351.368530,856.082703 
	C350.284119,864.320740 350.298187,864.324646 342.225800,864.325928 
	C333.393616,864.327332 324.557312,864.167664 315.731171,864.398071 
	C312.053925,864.494019 310.099884,863.189209 309.426147,859.643860 
	C309.147980,858.180237 308.578674,856.774475 308.209900,855.325134 
	C305.977753,846.552429 305.993988,846.473816 297.209229,845.376099 
	C293.873352,844.959290 292.491364,842.348999 290.937561,840.138977 
	C288.389832,836.515198 285.318970,835.165771 280.821228,835.232910 
	C254.665909,835.623657 228.506256,835.826172 202.348038,835.828491 
	C197.454987,835.828918 193.505508,836.829102 190.786499,841.035278 
	C187.441513,846.209778 182.689301,847.338867 176.904434,846.410156 
	C172.978241,845.779785 168.953400,845.789429 164.986374,845.380066 
	C161.541763,845.024719 159.257126,846.177856 158.085266,849.606934 
	C156.957260,852.907837 155.347412,856.048340 154.289307,859.367676 
	C153.195694,862.798340 150.939529,864.069824 147.556610,864.082886 
	C137.225143,864.122681 126.893745,864.202393 116.562592,864.296631 
	C111.913437,864.338989 108.414078,862.939880 107.819702,857.664978 
	C107.782700,857.336670 107.681343,857.012634 107.583656,856.694641 
	C104.351074,846.173279 104.349037,846.074646 93.331924,846.249695 
	C90.013359,846.302429 88.366478,845.343079 88.334503,841.838318 
	C88.185562,825.514954 87.862511,809.192749 87.788834,792.869324 
	C87.764687,787.518250 90.667015,783.312866 94.619408,780.043884 
	C99.778740,775.776794 104.307632,770.883789 108.934509,766.107300 
	C111.970818,762.972961 115.244514,761.578918 119.549309,761.708313 
	C125.873970,761.898499 132.196747,761.640198 138.520432,761.130371 
	C141.742538,760.870544 142.933502,759.550598 142.889694,756.481873 
	C142.625763,737.995239 142.428009,719.507751 142.178772,701.020874 
	C142.039566,690.694519 141.899979,680.367554 141.656235,670.043396 
	C141.449265,661.277100 141.206757,660.844849 132.535706,661.241821 
	C124.448219,661.612000 116.364342,661.467590 108.237343,662.173035 
	C99.591995,662.923462 92.382797,657.121765 86.377754,650.838989 
	C85.294800,649.705933 85.670815,647.976990 85.669624,646.492737 
	C85.657860,631.827454 85.677589,617.162170 85.661308,602.496887 
	C85.658653,600.104065 85.734901,597.916931 88.211189,596.468628 
	C90.323700,595.233032 89.623169,592.894348 89.626068,590.974365 
	C89.658249,569.644958 89.668633,548.315369 89.599564,526.986145 
	C89.588615,523.605957 90.017227,520.379761 91.167389,517.201416 
	C95.474724,505.298645 100.650368,493.799011 106.747833,482.700623 
	C109.401619,477.870331 114.284897,475.760773 118.402863,472.773590 
	C128.769806,465.253387 139.250793,457.884247 149.829269,450.664337 
	C155.439423,446.835358 160.532379,442.966339 168.549866,443.283997 
	C179.963028,443.736084 191.509811,442.774323 203.001648,442.867401 
	C206.926208,442.899139 208.487045,441.225433 208.534088,437.604034 
	C208.577393,434.271759 208.621948,430.938049 208.573380,427.606293 
	C208.483704,421.454041 207.419388,420.165985 201.159683,420.478394 
	C185.003632,421.284668 168.838943,420.798401 152.681946,421.126434 
	C145.129211,421.279785 144.957184,420.873108 144.630844,413.397461 
	C143.857101,395.672913 146.547653,398.350952 129.048233,397.320465 
	C121.909218,396.900085 121.734779,396.999634 121.809875,389.889282 
	C122.123009,360.240387 122.541222,330.592346 122.744644,300.942780 
	C122.775520,296.443268 124.183388,294.508331 128.858810,294.938324 
	C132.326599,295.257294 135.855530,294.839905 139.350021,294.960236 
	C142.757675,295.077545 144.280640,293.645935 144.082718,290.222290 
	C143.919312,287.395752 143.896423,284.560059 143.852570,281.727814 
	C143.733582,274.042999 144.020111,273.690247 151.512634,273.679535 
	C179.841766,273.639130 208.170959,273.641418 237.000122,273.627441 
M336.843536,550.484741 
	C336.822998,546.653442 336.437469,542.782043 336.853333,538.998718 
	C337.919067,529.302551 335.129456,521.941345 327.636078,514.925232 
	C312.222443,500.493195 297.929871,484.863129 283.195129,469.707458 
	C281.162170,467.616394 279.066071,466.250275 275.852020,466.260376 
	C240.370499,466.371796 204.888504,466.350769 169.406754,466.289612 
	C166.918167,466.285339 164.908997,466.942322 163.025269,468.513458 
	C155.646271,474.668030 148.462112,481.093506 140.749023,486.801422 
	C129.302063,495.272552 119.420387,504.656555 116.352196,519.347229 
	C115.713898,522.403320 113.620407,525.084534 113.770126,528.396545 
	C114.673248,548.374634 113.994743,568.365662 114.262390,588.348877 
	C114.335732,593.824158 115.229630,594.571289 120.806686,594.304321 
	C146.394745,593.079468 171.998520,592.529053 197.614319,592.819092 
	C209.825302,592.957397 210.169815,592.796936 212.678894,580.808289 
	C212.747040,580.482666 212.799728,580.151733 212.829758,579.820557 
	C213.957779,567.374023 216.493881,555.155762 219.195633,542.992859 
	C220.035522,539.211792 219.054703,536.465637 216.858627,533.829956 
	C214.629791,531.155029 212.171219,528.673096 209.874985,526.052551 
	C200.458572,515.306335 191.894241,503.877472 183.240814,492.526367 
	C180.602707,489.065857 181.591110,485.643677 185.240356,485.420563 
	C196.148819,484.753601 206.656357,480.596375 217.802826,481.932526 
	C221.572403,482.384369 225.456833,481.502106 229.248978,482.363892 
	C232.829849,483.177673 233.444855,485.074219 231.539200,488.172302 
	C229.752884,491.076324 226.913391,491.629028 223.936218,492.311371 
	C217.208252,493.853394 216.660843,496.406952 220.399857,502.011169 
	C224.956589,508.841034 231.254166,514.182068 235.750046,520.988525 
	C239.623154,526.852173 245.133926,528.720886 251.918488,529.121643 
	C268.070435,530.075562 284.220703,529.543213 300.369965,529.702698 
	C310.223389,529.800049 310.239899,529.729858 310.091858,539.817322 
	C309.955231,549.127258 309.792206,558.436829 309.616760,567.746155 
	C309.509979,573.412476 312.765472,576.418762 318.374695,575.780090 
	C330.449585,574.405273 336.857239,567.357239 336.837097,555.474609 
	C336.834839,554.141968 336.839996,552.809326 336.843536,550.484741 
M147.007935,352.499969 
	C147.014664,361.998901 147.217972,371.503387 146.949448,380.994537 
	C146.803925,386.137787 148.605820,389.814667 152.551178,393.037109 
	C157.016800,396.684540 161.988800,396.517456 166.709579,394.991211 
	C171.192047,393.541992 169.709229,388.900787 170.000946,385.391876 
	C170.083481,384.399170 170.003433,383.393188 170.002563,382.393280 
	C169.986191,363.562866 169.914978,344.732208 170.007690,325.902344 
	C170.023727,322.645508 169.150055,318.643402 174.884567,318.660828 
	C210.382553,318.768707 245.881104,318.740662 281.379272,318.665497 
	C284.857086,318.658142 286.166046,320.083984 286.122925,323.414093 
	C286.047455,329.245270 286.129486,335.078491 286.141510,340.910858 
	C286.171082,355.241791 286.124817,369.573425 286.269135,383.903198 
	C286.315552,388.512421 287.825348,392.641174 292.962097,393.752899 
	C300.783478,395.445648 310.813324,387.221283 310.810852,379.297516 
	C310.804901,360.131989 310.782471,340.966400 310.715729,321.801025 
	C310.695312,315.930847 311.276093,310.229401 306.989044,304.882111 
	C303.534302,300.572968 300.414764,297.184875 294.561035,297.284363 
	C253.402969,297.983887 212.264404,296.210876 171.109985,296.233215 
	C164.292145,296.236908 157.667313,295.859375 154.045029,303.301483 
	C153.713959,303.981628 152.852951,304.467407 152.146591,304.890930 
	C148.098801,307.317749 146.978378,310.966095 147.030502,315.504822 
	C147.168289,327.501495 147.024246,339.501404 147.007935,352.499969 
M115.638588,635.722595 
	C178.770386,635.722046 241.902191,635.722839 305.033997,635.719727 
	C318.693115,635.718994 332.353058,635.616394 346.010773,635.751343 
	C349.907501,635.789856 352.038910,634.560791 352.018280,630.429016 
	C352.011688,629.110657 352.418152,627.795776 352.523651,626.470459 
	C353.090363,619.350220 352.171844,618.347473 344.968445,618.315063 
	C270.029510,617.977905 195.090561,617.643005 120.151527,617.324158 
	C108.207275,617.273376 108.207108,617.311646 108.159515,629.037598 
	C108.132607,635.668091 108.132614,635.668091 115.638588,635.722595 
M215.723419,717.497986 
	C215.769760,705.001038 215.766602,692.503662 215.897156,680.007568 
	C215.929886,676.871643 214.955383,675.220337 211.613007,674.523315 
	C206.837814,673.527649 202.198837,672.845459 197.278122,673.552734 
	C192.978592,674.170715 189.192596,673.408142 185.557007,669.888550 
	C181.848984,666.298828 176.435379,667.240845 171.847122,669.138855 
	C167.714386,670.848389 164.982513,673.379822 165.131363,678.870972 
	C165.505829,692.684448 166.589188,706.470032 166.437469,720.312439 
	C166.307999,732.125000 167.056931,743.945618 167.294769,755.765076 
	C167.348785,758.449524 168.248489,759.791016 171.054626,759.774109 
	C184.218430,759.694824 197.382660,759.685120 210.546539,759.617676 
	C213.292801,759.603638 214.684708,758.356812 214.941879,755.384644 
	C216.004807,743.100037 215.539444,730.794373 215.723419,717.497986 
M252.551865,593.748352 
	C257.707764,593.747375 262.867188,593.629883 268.018311,593.786133 
	C271.490845,593.891418 273.412994,592.441040 273.725647,589.027466 
	C274.755798,577.780151 277.578278,567.266418 284.869812,558.208923 
	C286.947479,555.627930 285.487244,553.255676 282.088409,553.238831 
	C275.116821,553.204285 268.142365,552.869812 261.166748,553.647644 
	C257.305847,554.078186 255.331238,556.063660 254.042908,559.535950 
	C251.071350,567.544983 247.957291,575.504578 244.730835,583.414856 
	C240.501190,593.784668 240.430710,593.755920 252.551865,593.748352 
M214.766037,798.867310 
	C229.057144,805.616455 241.911880,799.423706 255.395462,795.549927 
	C254.242661,792.758484 252.725143,792.407227 251.257385,792.235474 
	C241.519516,791.096191 231.781738,789.941650 222.024094,788.997070 
	C219.752533,788.777222 217.334167,789.068726 215.109650,789.627625 
	C212.450897,790.295776 208.871109,790.756042 208.662186,794.142822 
	C208.477737,797.133179 212.123001,797.187927 214.766037,798.867310 
z"/>
<path fill="#000000" opacity="1.000000" stroke="none" 
	d="
M250.499268,482.938599 
	C255.467651,483.125183 260.202576,481.651886 264.284088,485.158203 
	C268.661987,488.919159 269.475494,499.603058 265.471588,503.756836 
	C262.375366,506.968964 256.458771,507.043213 254.059341,503.403900 
	C251.152481,498.995117 248.551666,494.313446 246.855301,489.266510 
	C245.862137,486.311737 245.994446,483.537842 250.499268,482.938599 
z"/>
</svg>